<svg width="56" height="56" viewBox="0 0 56 56" fill="none" xmlns="http://www.w3.org/2000/svg">
<path opacity="0.4" d="M8.16406 51.3337V11.667C8.16406 7.00033 11.2907 4.66699 15.1641 4.66699H33.8307C37.7041 4.66699 40.8307 7.00033 40.8307 11.667V51.3337H8.16406Z" fill="#C99612"/>
<path d="M44.3307 53.083H4.66406C3.7074 53.083 2.91406 52.2897 2.91406 51.333C2.91406 50.3763 3.7074 49.583 4.66406 49.583H44.3307C45.2874 49.583 46.0807 50.3763 46.0807 51.333C46.0807 52.2897 45.2874 53.083 44.3307 53.083Z" fill="#C99612"/>
<path d="M18.41 23.3337H30.6133C33.04 23.3337 35.0233 22.167 35.0233 18.9237V16.0537C35 12.8337 33.0167 11.667 30.59 11.667H18.3867C15.9833 11.667 14 12.8337 14 16.077V18.947C14 22.167 15.9833 23.3337 18.41 23.3337Z" fill="#C99612"/>
<path d="M22.1641 32.083H15.1641C14.2074 32.083 13.4141 31.2897 13.4141 30.333C13.4141 29.3763 14.2074 28.583 15.1641 28.583H22.1641C23.1207 28.583 23.9141 29.3763 23.9141 30.333C23.9141 31.2897 23.1207 32.083 22.1641 32.083Z" fill="#C99612"/>
<path d="M53.0859 23.3337V37.3337C53.0859 38.2904 52.3159 39.0837 51.3359 39.0837L40.8359 39.107V35.607L49.5859 35.5837V24.407L45.8759 22.5637C45.0126 22.1437 44.6626 21.0937 45.1059 20.207C45.5259 19.3437 46.5993 19.017 47.4626 19.437L52.1293 21.7704C52.7126 22.0737 53.0859 22.6804 53.0859 23.3337Z" fill="#C99612"/>
</svg>
