<svg width="56" height="56" viewBox="0 0 56 56" fill="none" xmlns="http://www.w3.org/2000/svg">
<path d="M51.3307 44.3333V51.3333H4.66406V44.3333C4.66406 43.05 5.71406 42 6.9974 42H48.9974C50.2807 42 51.3307 43.05 51.3307 44.3333Z" fill="#1D70B8" stroke="#1D70B8" stroke-width="1.5" stroke-miterlimit="10" stroke-linecap="round" stroke-linejoin="round"/>
<path opacity="0.6" d="M18.6693 25.667H9.33594V42.0003H18.6693V25.667Z" fill="#1D70B8"/>
<path opacity="0.4" d="M27.9974 25.667H18.6641V42.0003H27.9974V25.667Z" fill="#1D70B8"/>
<path opacity="0.6" d="M37.3333 25.667H28V42.0003H37.3333V25.667Z" fill="#1D70B8"/>
<path opacity="0.4" d="M46.6693 25.667H37.3359V42.0003H46.6693V25.667Z" fill="#1D70B8"/>
<path d="M53.6693 53.083H2.33594C1.37927 53.083 0.585938 52.2897 0.585938 51.333C0.585938 50.3763 1.37927 49.583 2.33594 49.583H53.6693C54.6259 49.583 55.4193 50.3763 55.4193 51.333C55.4193 52.2897 54.6259 53.083 53.6693 53.083Z" fill="#1D70B8"/>
<path d="M49.8607 13.4169L28.8607 5.01695C28.3941 4.83029 27.6007 4.83029 27.1341 5.01695L6.13407 13.4169C5.31741 13.7436 4.66406 14.7002 4.66406 15.5869V23.3336C4.66406 24.6169 5.71406 25.6669 6.9974 25.6669H48.9974C50.2807 25.6669 51.3307 24.6169 51.3307 23.3336V15.5869C51.3307 14.7002 50.6774 13.7436 49.8607 13.4169ZM27.9974 19.8336C26.0607 19.8336 24.4974 18.2702 24.4974 16.3336C24.4974 14.3969 26.0607 12.8336 27.9974 12.8336C29.9341 12.8336 31.4974 14.3969 31.4974 16.3336C31.4974 18.2702 29.9341 19.8336 27.9974 19.8336Z" fill="#1D70B8"/>
</svg>
