<svg width="56" height="56" viewBox="0 0 56 56" fill="none" xmlns="http://www.w3.org/2000/svg">
<path opacity="0.4" d="M51.3307 18.2232V37.7765C51.3307 46.2698 46.2674 51.3332 37.7741 51.3332H18.2207C9.7274 51.3332 4.66406 46.2698 4.66406 37.7765V18.2232C4.66406 17.0332 4.7574 15.8898 4.9674 14.8398C6.1574 8.42317 10.8941 4.68984 18.1274 4.6665H37.8674C45.1007 4.68984 49.8374 8.42317 51.0274 14.8398C51.2374 15.8898 51.3307 17.0332 51.3307 18.2232Z" fill="#70028C"/>
<path d="M51.3307 18.2232V18.3398H4.66406V18.2232C4.66406 17.0332 4.7574 15.8898 4.9674 14.8398H18.1274V4.6665H21.6274V14.8398H34.3674V4.6665H37.8674V14.8398H51.0274C51.2374 15.8898 51.3307 17.0332 51.3307 18.2232Z" fill="#70028C"/>
<path d="M33.6972 29.6798L28.8439 26.8798C27.0472 25.8531 25.3205 25.7131 23.9672 26.4831C22.6139 27.2531 21.8672 28.8398 21.8672 30.8931V36.4931C21.8672 38.5464 22.6139 40.1331 23.9672 40.9031C24.5505 41.2298 25.2039 41.3931 25.8805 41.3931C26.8139 41.3931 27.8172 41.0898 28.8439 40.5064L33.6972 37.7064C35.4939 36.6798 36.4739 35.2331 36.4739 33.6698C36.4739 32.1064 35.4705 30.7298 33.6972 29.6798Z" fill="#70028C"/>
</svg>
