<svg width="56" height="56" viewBox="0 0 56 56" fill="none" xmlns="http://www.w3.org/2000/svg">
<path opacity="0.4" d="M51.3307 18.2232V32.6665H41.8107C40.2474 32.6665 38.4041 31.5465 37.6807 30.1698L35.2541 25.5732C34.6007 24.3365 33.6674 24.4065 33.1541 25.6898L27.7874 39.2465C27.2041 40.7632 26.2241 40.7632 25.6174 39.2465L22.9574 32.5265C22.3274 30.8932 20.3674 29.5632 18.6174 29.5632L4.66406 29.6332V18.2232C4.66406 9.72984 9.7274 4.6665 18.2207 4.6665H37.7741C46.2674 4.6665 51.3307 9.72984 51.3307 18.2232Z" fill="#207E29"/>
<path d="M51.3307 37.7768V32.6668H41.8107C40.2474 32.6668 38.4041 31.5468 37.6807 30.1702L35.2541 25.5735C34.6007 24.3368 33.6674 24.4068 33.1541 25.6902L27.7874 39.2468C27.2041 40.7635 26.2241 40.7635 25.6174 39.2468L22.9574 32.5268C22.3274 30.8935 20.3674 29.5635 18.6174 29.5635L4.66406 29.6335V37.7768C4.66406 46.1302 9.56406 51.1702 17.8007 51.3102C18.0574 51.3335 18.3374 51.3335 18.5941 51.3335H37.2607C37.6107 51.3335 37.9607 51.3335 38.2874 51.3102C46.4774 51.1235 51.3307 46.1068 51.3307 37.7768Z" fill="#207E29"/>
<path d="M4.66375 29.6333V37.3566C4.61708 36.61 4.59375 35.8166 4.59375 35V29.6333H4.66375Z" fill="#207E29"/>
</svg>
