<svg width="80" height="80" viewBox="0 0 80 80" fill="none" xmlns="http://www.w3.org/2000/svg">
<g clip-path="url(#clip0_246_2122)">
<path d="M66.4817 63.9336L79.8683 30.0536C79.895 29.9736 79.935 29.907 79.975 29.8403L80.0017 29.8003V29.387C79.8283 29.0136 79.5483 28.8536 79.0417 28.8536C79.0417 28.8536 79.0417 28.8536 79.0283 28.8536C74.4683 28.867 69.9083 28.867 65.3483 28.867H61.215C61.095 28.867 61.0017 28.787 60.9617 28.667L60.9217 28.4936C60.9083 28.4003 60.8817 28.307 60.8683 28.227L60.3883 25.4936C59.9217 22.8803 59.455 20.267 58.9883 17.6536C58.855 16.8936 58.695 16.7736 57.935 16.7736C48.6817 16.7736 39.4283 16.7736 30.175 16.7736C29.8817 16.7736 29.655 16.6803 29.4283 16.4803C28.3617 15.4936 27.2817 14.4803 26.215 13.4936L23.8283 11.267C23.615 11.0536 23.3883 10.9736 23.1083 10.9736C17.735 10.9736 12.3617 10.9736 7.00167 10.9736H0.801674C0.535008 10.9736 0.321674 11.0536 0.188341 11.187C0.0550078 11.347 -0.0116589 11.5736 0.00167446 11.8403C0.0150078 12.107 0.0550078 12.387 0.0683411 12.667C0.0816744 12.8403 0.108341 13.0003 0.121674 13.1736L0.415008 16.8003C0.561674 18.6003 0.708341 20.4136 0.855008 22.2136C0.988341 23.707 1.10834 25.2136 1.22834 26.707C1.34834 28.2003 1.48167 29.707 1.60167 31.2003L2.41501 40.987C2.57501 42.8536 2.73501 44.7203 2.89501 46.5736L3.34834 51.947C3.60167 54.9203 3.85501 57.8936 4.09501 60.8803C4.12167 61.2136 4.24167 61.4403 4.50834 61.667C5.52167 62.5336 6.52167 63.387 7.50834 64.2803C7.77501 64.5203 8.02834 64.6136 8.37501 64.6136C14.9617 64.6136 21.5483 64.6136 28.135 64.6003H34.7217C34.7617 64.6003 34.7883 64.6003 34.8283 64.6003V63.187H9.61501C9.53501 63.187 9.45501 63.147 9.40167 63.0803C9.34834 63.0136 9.34834 62.947 9.37501 62.867L9.44167 62.667C9.48167 62.5736 9.50834 62.4936 9.53501 62.4003L11.975 56.2403C13.6017 52.1336 15.2283 48.027 16.8417 43.9336C18.575 39.5336 20.3083 35.147 22.0283 30.7603C22.1883 30.347 22.4817 30.2936 22.7483 30.2936C24.215 30.307 25.6817 30.2936 27.1483 30.307L33.1083 30.3203C36.4817 30.3336 39.8683 30.3336 43.2417 30.3203C44.895 30.3203 46.5217 30.3203 48.175 30.307H77.8683C77.9483 30.307 78.0283 30.347 78.0683 30.4003C78.1217 30.4536 78.1217 30.547 78.095 30.627L78.055 30.747C78.0283 30.8403 78.0017 30.9203 77.9617 31.0003L76.495 34.7203C72.815 44.0403 69.135 53.3603 65.455 62.6936C65.3217 63.0536 65.095 63.187 64.7217 63.187C64.7083 63.187 64.7083 63.187 64.7083 63.187C63.8017 63.1736 62.9083 63.1736 62.015 63.1736H60.9083V64.6003H65.5483C66.135 64.587 66.2683 64.4936 66.4817 63.9336ZM53.255 28.7603C53.2017 28.8136 53.135 28.8536 53.0683 28.8536H48.5483C48.415 28.8536 48.3217 28.7603 48.295 28.6403L48.2283 28.067C48.175 27.6403 48.1217 27.2136 48.0683 26.787C48.0283 26.4136 47.895 26.2136 47.6417 26.0803C47.415 25.9736 47.1617 25.987 46.9617 26.1203C46.7483 26.2536 46.6417 26.467 46.655 26.7203C46.6683 27.067 46.7083 27.427 46.7617 27.7736C46.775 27.9336 46.8017 28.107 46.815 28.2536L46.855 28.5603C46.8683 28.627 46.8417 28.6936 46.8017 28.7603C46.7483 28.8136 46.6817 28.8403 46.615 28.8403H43.8683C43.735 28.8403 43.6417 28.747 43.615 28.627L43.5483 28.0803C43.495 27.667 43.455 27.2403 43.4017 26.827C43.3483 26.4136 43.2417 26.2003 42.9883 26.0803C42.735 25.9603 42.5083 25.9736 42.2683 26.1336C42.0417 26.2936 41.935 26.507 41.975 26.7736C42.015 27.187 42.0683 27.6003 42.1217 28.0403L42.1883 28.5736C42.2017 28.6403 42.175 28.707 42.135 28.7736C42.0817 28.827 42.015 28.8536 41.9483 28.8536H39.2017C39.0683 28.8536 38.975 28.7603 38.9483 28.6403L38.8817 28.0536C38.8283 27.6003 38.775 27.147 38.7083 26.6936C38.6683 26.4536 38.575 26.267 38.4283 26.1336C38.295 26.0136 38.1083 25.9736 37.9083 26.0003C37.4683 26.0536 37.255 26.4003 37.3083 26.907C37.3617 27.307 37.4017 27.6936 37.4417 28.0936L37.495 28.5603C37.5083 28.627 37.4817 28.6936 37.4417 28.7603C37.3883 28.8136 37.3217 28.8403 37.255 28.8403H34.535C34.4017 28.8403 34.3083 28.747 34.2817 28.627L34.2017 28.0136C34.1483 27.5736 34.095 27.1203 34.0283 26.6803C33.975 26.2403 33.655 25.9603 33.2417 26.0136C33.0417 26.0403 32.8683 26.1336 32.7617 26.267C32.6417 26.427 32.5883 26.6536 32.6283 26.8936C32.6817 27.267 32.7217 27.6536 32.7617 28.0403L32.815 28.5736C32.8283 28.6403 32.8017 28.707 32.7617 28.7736C32.7083 28.827 32.6417 28.8536 32.575 28.8536H29.8417C29.7083 28.8536 29.615 28.7603 29.5883 28.6403L29.335 26.6936C29.2817 26.227 28.9617 25.9336 28.5483 25.987C28.1217 26.0403 27.8683 26.3736 27.9217 26.8403C27.9617 27.1736 28.0017 27.5203 28.0417 27.867L28.1083 28.4403C28.1217 28.4936 28.1083 28.547 28.095 28.5736C28.0817 28.6936 27.9617 28.827 27.8417 28.827H25.135C25.0017 28.827 24.9083 28.7336 24.8817 28.6136L24.815 28.0536C24.7617 27.587 24.695 27.1203 24.6417 26.6536C24.5883 26.267 24.335 26.0003 23.9617 25.9736C23.6283 25.9603 23.3217 26.1736 23.255 26.467C23.215 26.6403 23.2417 26.867 23.255 27.067C23.2817 27.4136 23.335 27.747 23.375 28.107L23.4283 28.547C23.4417 28.6136 23.415 28.6803 23.375 28.747C23.3217 28.8003 23.255 28.827 23.1883 28.827H21.9217C21.3483 28.827 21.1883 28.9336 20.975 29.467C20.895 29.6536 20.815 29.8403 20.6817 30.027C20.6283 30.107 20.5083 30.147 20.415 30.1203C20.3217 30.0936 20.2417 30.0003 20.2417 29.907L20.1617 29.0003C20.095 28.2536 20.0283 27.5203 19.9617 26.7736C19.9483 26.4803 19.8283 26.2536 19.655 26.1203C19.5217 26.0136 19.3483 25.9603 19.1617 25.987C18.7617 26.0403 18.5217 26.3203 18.5483 26.7203C18.6017 27.507 18.6683 28.2803 18.7483 29.067L19.175 33.8136C19.1883 33.9336 19.1617 34.067 19.1217 34.187C18.4417 35.9203 17.7483 37.6536 17.055 39.4003C17.0417 39.427 17.0283 39.467 16.9883 39.5336L16.935 39.627C16.8817 39.7203 16.775 39.7603 16.6683 39.7336C16.575 39.7203 16.495 39.627 16.4817 39.5203L16.4283 38.9203C16.3883 38.4936 16.3483 38.0936 16.3083 37.6936C16.095 35.387 15.8817 33.0936 15.6683 30.8003L15.6417 30.4403C15.535 29.2536 15.4283 28.0536 15.3217 26.867C15.2817 26.4003 15.1617 26.187 14.8817 26.0536C14.6417 25.947 14.4017 25.9603 14.2017 26.107C13.9883 26.2536 13.8817 26.507 13.9083 26.7736C13.975 27.6803 14.0683 28.6003 14.1617 29.507L14.9217 37.627C15.095 39.4536 15.255 41.2803 15.415 43.107C15.4283 43.387 15.4017 43.667 15.3083 43.9203C14.3083 46.4803 13.3083 49.027 12.295 51.587L11.7083 53.1736C11.655 53.307 11.5883 53.4536 11.4417 53.587C11.3883 53.627 11.335 53.6536 11.2683 53.6536C11.2417 53.6536 11.215 53.6403 11.175 53.6403C11.0817 53.6136 11.0283 53.5203 11.015 53.427L8.32167 23.1336C8.30834 23.067 8.33501 23.0003 8.37501 22.947C8.41501 22.8936 8.48167 22.867 8.54834 22.867H52.055C52.175 22.867 52.2683 22.9603 52.3083 23.0803L53.295 28.5736C53.3217 28.6403 53.3083 28.707 53.255 28.7603ZM59.4417 28.7603C59.3883 28.8136 59.3217 28.8536 59.255 28.8536H55.015C54.895 28.8536 54.8017 28.7603 54.7617 28.6403L54.655 28.0403C54.5883 27.667 54.5217 27.2803 54.4417 26.907L54.095 24.947C53.9217 23.987 53.7483 23.027 53.575 22.067C53.495 21.627 53.255 21.4136 52.7883 21.387C52.7083 21.387 52.6283 21.387 52.5617 21.387H52.4683H7.80167C7.72167 21.387 7.65501 21.387 7.57501 21.387C7.32167 21.4003 7.10834 21.4803 6.97501 21.627C6.85501 21.7603 6.80167 21.9603 6.81501 22.2136C6.86834 22.947 6.93501 23.6803 6.98834 24.4003L9.44167 52.2936C9.57501 53.8136 9.69501 55.3203 9.85501 56.8403C9.90834 57.3603 9.82834 57.827 9.60167 58.3736C9.22834 59.2936 8.85501 60.2136 8.49501 61.1603L8.02834 62.347C8.00167 62.427 7.93501 62.4803 7.85501 62.4936C7.84167 62.4936 7.81501 62.507 7.80167 62.507C7.74834 62.507 7.68167 62.4936 7.64167 62.4536L7.20167 62.0803C6.68167 61.6403 6.18834 61.2136 5.70834 60.7736C5.54834 60.6403 5.50834 60.387 5.49501 60.2936C5.16167 56.427 4.84167 52.5603 4.50834 48.6803L3.29501 34.147C3.16167 32.467 3.00167 30.787 2.86834 29.1203C2.72167 27.3203 2.57501 25.5203 2.42834 23.707L1.50834 12.667C1.50834 12.6003 1.52167 12.5336 1.57501 12.4803C1.62834 12.427 1.69501 12.4003 1.76167 12.4003H4.38834C10.4417 12.4003 16.5083 12.4003 22.5617 12.4136C22.7883 12.4136 23.0683 12.5203 23.2417 12.6803C25.1083 14.387 26.9617 16.107 28.8017 17.8403C29.0817 18.0936 29.3617 18.2136 29.7483 18.2136C34.295 18.2136 38.8417 18.2003 43.375 18.2003C47.9083 18.2003 52.4683 18.2003 57.0017 18.187C57.415 18.2003 57.6817 18.2936 57.7617 18.8136C58.175 21.2003 58.6017 23.5736 59.0283 25.9603L59.4283 28.1736C59.4417 28.2536 59.4417 28.347 59.4683 28.427L59.4817 28.5603C59.5083 28.6403 59.495 28.7203 59.4417 28.7603Z" fill="#4482B6"/>
<path d="M38.5368 53.3331V68.8531C38.5368 68.9064 38.5368 68.9731 38.5234 69.0264H57.8968C57.8968 68.9731 57.8834 68.9064 57.8834 68.8531V53.3064H54.6701C54.5368 53.3064 54.4168 53.1997 54.4168 53.0531V52.0131C54.4168 51.1731 54.4168 50.3331 54.4168 49.5064C54.4168 49.0664 54.4034 48.6931 54.3234 48.3331C53.6968 44.9064 50.7501 42.7331 47.2834 43.1597C44.6168 43.4931 42.2568 45.8931 42.0568 48.5331C41.9768 49.4664 41.9901 50.4264 41.9901 51.3464C41.9901 51.7864 41.9901 52.2131 41.9901 52.6397V53.0664C41.9901 53.1997 41.8834 53.3197 41.7368 53.3197H38.5368V53.3331ZM43.4834 48.7331C43.6701 46.4131 45.7901 44.5197 48.2301 44.5197C48.2434 44.5197 48.2434 44.5197 48.2434 44.5197C50.6701 44.5331 52.7768 46.4397 52.9501 48.7597C53.0168 49.7331 53.0034 50.7331 52.9901 51.7064C52.9768 52.1464 52.9768 52.5997 52.9768 53.0397C52.9768 53.1731 52.8701 53.2931 52.7234 53.2931H43.7101C43.6301 53.2931 43.5634 53.2531 43.5101 53.1997C43.4834 53.1597 43.4168 53.1064 43.4168 52.9864C43.4168 52.5597 43.4168 52.1197 43.4168 51.6931C43.4168 50.7331 43.4034 49.7331 43.4834 48.7331ZM56.2034 54.7864C56.3368 54.7864 56.4568 54.8931 56.4568 55.0397V67.3597C56.4568 67.4931 56.3501 67.6131 56.2034 67.6131H40.2434C40.1101 67.6131 39.9901 67.5064 39.9901 67.3597V55.0397C39.9901 54.9064 40.0968 54.7864 40.2434 54.7864H56.2034Z" fill="#EC6A30"/>
<path d="M22.161 16.2676H16.7344V17.6409H22.161V16.2676Z" fill="#EC6A30"/>
<path d="M9.005 16.2676H7.125V17.6409H9.005V16.2676Z" fill="#EC6A30"/>
<path d="M13.8175 16.2539H11.9375V17.6272H13.8175V16.2539Z" fill="#EC6A30"/>
<path d="M48.889 59.1602H47.5156V63.2135H48.889V59.1602Z" fill="#EC6A30"/>
</g>
<defs>
<clipPath id="clip0_246_2122">
<rect width="80" height="80" fill="white"/>
</clipPath>
</defs>
</svg>
