<svg width="81" height="80" viewBox="0 0 81 80" fill="none" xmlns="http://www.w3.org/2000/svg">
<g clip-path="url(#clip0_246_2146)">
<path d="M80.6648 15.4397C80.6648 22.6397 80.6648 29.8264 80.6648 37.0264C80.3715 38.3197 80.1715 39.6264 79.7715 40.8797C78.3448 45.4664 75.3981 49.0264 71.8248 52.1197C70.3848 53.3597 68.8515 54.4797 67.3448 55.6664C69.1581 58.3864 69.6781 61.3064 68.6648 64.4131C67.2781 68.6797 63.5315 71.2397 58.6781 71.2397C45.5181 71.2397 32.3581 71.2397 19.1981 71.2397C16.2248 71.2397 13.2515 71.3064 10.2915 71.1997C6.21146 71.0531 3.23812 69.0131 1.58479 65.3464C-0.0818758 61.6264 0.504791 58.0531 3.11812 54.9064C3.78479 54.0931 4.67812 53.4531 5.46479 52.7331C2.41146 50.7064 0.704791 47.8931 0.718124 44.1997C0.731458 40.5197 2.49146 37.7597 5.54479 35.6931C5.23812 35.4797 5.03812 35.3331 4.82479 35.1864C1.35812 32.6797 -0.108543 28.3331 1.13146 24.2531C2.42479 19.9864 6.26479 17.2531 10.9981 17.2531C19.5315 17.2397 28.0515 17.2531 36.5848 17.2531C36.9848 17.2531 37.3848 17.2531 37.8915 17.2531C37.8915 16.7331 37.9181 16.3597 37.8915 15.9864C37.8381 15.2664 38.1715 14.7997 38.7848 14.4397C43.8515 11.5331 49.2781 9.63974 55.0781 8.97307C63.6915 7.98641 71.6648 10.0664 79.1715 14.1731C79.7448 14.4664 80.1715 15.0131 80.6648 15.4397ZM77.8248 27.1864C77.8381 27.1864 77.8648 27.1864 77.8781 27.1864C77.8781 23.9064 77.8781 20.6264 77.8781 17.3464C77.8781 16.8397 77.7981 16.4664 77.2781 16.1997C72.1181 13.5331 66.6915 11.7731 60.8648 11.4664C53.8648 11.1197 47.3715 13.0264 41.1981 16.1997C40.6248 16.4931 40.5715 16.8931 40.5715 17.4264C40.5848 23.2797 40.6248 29.1464 40.5581 34.9997C40.5315 38.4931 41.5048 41.6531 43.4648 44.5197C47.3315 50.1597 52.8248 53.7997 58.8115 56.8131C59.0515 56.9331 59.4515 56.8931 59.7048 56.7731C64.9181 54.1997 69.7181 51.0264 73.4915 46.5331C75.8915 43.6664 77.6648 40.4797 77.7981 36.6531C77.9181 33.4931 77.8248 30.3464 77.8248 27.1864ZM64.9448 57.1597C63.3848 57.9597 61.8781 58.7197 60.3715 59.4931C59.5981 59.8931 58.8515 59.9197 58.0915 59.4797C55.3715 57.8931 52.6515 56.3064 49.9181 54.7464C49.4248 54.4664 48.8248 54.2131 48.2648 54.1997C35.7581 54.1731 23.2381 54.1731 10.7315 54.1864C10.2248 54.1864 9.70479 54.1997 9.21146 54.3064C5.55812 55.0797 3.07812 58.4531 3.46479 62.0931C3.85146 65.7464 6.95812 68.5331 10.6915 68.5331C26.8381 68.5464 42.9981 68.5331 59.1448 68.5331C59.7181 68.5331 60.2915 68.4664 60.8515 68.3464C65.9048 67.2397 68.2115 60.9331 64.9448 57.1597ZM37.9048 37.0931C37.6381 37.0797 37.4781 37.0664 37.3181 37.0664C28.3715 37.0664 19.4381 37.0531 10.4915 37.0797C9.89146 37.0797 9.27812 37.1997 8.70479 37.3597C5.26479 38.3197 2.99812 41.6931 3.46479 45.1464C3.95812 48.8397 6.98479 51.4531 10.8115 51.4531C22.0781 51.4664 33.3581 51.4531 44.6248 51.4531C44.9181 51.4531 45.2248 51.4131 45.7181 51.3731C41.5581 47.3597 38.4915 42.9197 37.9048 37.0931ZM37.8515 34.3597C37.8515 29.5064 37.8515 24.7997 37.8515 20.0531C37.5181 20.0264 37.2381 19.9997 36.9581 19.9997C28.1848 19.9997 19.3981 19.9997 10.6248 19.9997C10.1448 19.9997 9.66479 20.0397 9.19812 20.1331C5.53146 20.9331 3.06479 24.2931 3.46479 27.9197C3.87812 31.6131 6.98479 34.3464 10.7981 34.3464C19.4781 34.3464 28.1581 34.3464 36.8515 34.3464C37.1581 34.3597 37.4781 34.3597 37.8515 34.3597Z" fill="#4482B6"/>
<path d="M56.3694 36.6399C59.7294 33.2799 63.0094 30.0266 66.2761 26.7599C67.3694 25.6666 68.1028 25.5199 68.7961 26.2399C69.4361 26.9066 69.2628 27.6532 68.2361 28.6799C64.7428 32.1732 61.2361 35.6532 57.7428 39.1466C56.6628 40.2266 56.1161 40.2266 55.0228 39.1332C53.3694 37.4932 51.7294 35.8532 50.0761 34.1999C49.1828 33.3066 49.0628 32.5332 49.7294 31.8932C50.3828 31.2666 51.1428 31.3999 52.0494 32.2932C53.4628 33.7066 54.8761 35.1332 56.3694 36.6399Z" fill="#EC6A30"/>
<path d="M13.5024 65.5194C11.1691 65.5194 9.28906 63.6661 9.28906 61.3594C9.28906 59.0527 11.1691 57.1594 13.4757 57.1194C15.8091 57.0927 17.7291 59.0261 17.7157 61.3727C17.7024 63.7327 15.8757 65.5194 13.5024 65.5194ZM14.9824 61.3327C14.9691 60.5461 14.3024 59.8794 13.5291 59.8661C12.6891 59.8527 12.0224 60.5327 12.0357 61.3727C12.0491 62.1727 12.7024 62.8261 13.4891 62.8394C14.3157 62.8527 14.9957 62.1594 14.9824 61.3327Z" fill="#EC6A30"/>
<path d="M13.4757 48.453C11.1424 48.4263 9.28906 46.5597 9.28906 44.2397C9.28906 41.893 11.2224 40.0263 13.5957 40.053C15.9291 40.093 17.7557 41.973 17.7157 44.3063C17.6757 46.653 15.8091 48.4797 13.4757 48.453ZM14.9824 44.2397C14.9691 43.453 14.3024 42.7863 13.5291 42.7597C12.7024 42.7463 12.0224 43.4397 12.0357 44.2797C12.0491 45.1063 12.7691 45.7997 13.5824 45.7597C14.3557 45.7197 14.9957 45.0263 14.9824 44.2397Z" fill="#EC6A30"/>
<path d="M13.4891 31.334C11.1424 31.3207 9.28906 29.494 9.28906 27.174C9.28906 24.814 11.1824 22.974 13.5824 22.9874C15.9291 23.014 17.7424 24.8674 17.7157 27.214C17.6891 29.5607 15.8757 31.334 13.4891 31.334ZM13.5424 25.6807C12.7024 25.6674 12.0224 26.3474 12.0357 27.1874C12.0491 27.9874 12.6757 28.6274 13.4757 28.654C14.3024 28.6807 14.9957 27.9874 14.9824 27.1607C14.9824 26.3607 14.3291 25.694 13.5424 25.6807Z" fill="#EC6A30"/>
</g>
<defs>
<clipPath id="clip0_246_2146">
<rect width="80" height="80" fill="white" transform="translate(0.664062)"/>
</clipPath>
</defs>
</svg>
