<svg width="80" height="80" viewBox="0 0 80 80" fill="none" xmlns="http://www.w3.org/2000/svg">
<path d="M77.28 50.1595C75.3733 47.0662 72.6 44.6262 69.24 43.1062C68.0533 42.5728 66.8 42.1995 65.48 41.8128C64.8533 41.6262 64.2267 41.4528 63.6133 41.2395C63.48 41.1995 63.3867 41.0662 63.3867 40.9328V33.5995C63.3867 33.4262 63.5333 33.2795 63.7067 33.2795H64.0267H64.6267C65.6267 33.2662 65.8533 33.0395 65.8667 32.0395C65.8667 31.8395 65.8667 31.6395 65.8667 31.4262C65.8533 31.0128 65.8533 30.6128 65.9067 30.2128C65.96 29.8395 66.28 29.4528 66.5733 29.2528C67.2267 28.7995 67.8667 28.6262 68.4533 28.7328C69.0667 28.8528 69.6267 29.2795 70.1067 30.0128C70.2 30.1595 70.36 30.2928 70.52 30.4262C71.1867 30.9995 71.6133 30.7328 71.88 30.4795C73.0533 29.3462 74.2933 28.1062 75.56 26.8128C75.96 26.3995 75.96 25.9862 75.5467 25.5062C75.3467 25.2795 75.2 25.1062 75.0267 24.9862C73.68 24.0528 73.4267 22.9462 74.24 21.5862C74.5067 21.1462 74.7467 20.7462 75.4667 20.7728C76.0933 20.8128 76.72 20.7995 77.4667 20.7728C78.0533 20.7462 78.32 20.4795 78.3333 19.9195C78.36 17.9195 78.36 16.2395 78.3333 14.6395C78.32 14.0395 78.04 13.7728 77.4133 13.7462C77.1467 13.7328 76.8667 13.7328 76.5733 13.7462C76.1067 13.7462 75.7067 13.7595 75.2933 13.7195C74.9467 13.6928 74.48 13.4262 74.3333 13.0662C73.5467 11.1995 73.5867 11.0128 75.0267 9.57282L75.1867 9.41282C75.3333 9.26616 75.44 9.15949 75.5333 9.05282C75.9733 8.55949 75.9867 8.18616 75.5733 7.75949C74.4133 6.55949 73.1867 5.33283 71.9067 4.07949C71.4667 3.65283 71.04 3.66616 70.5467 4.11949L70.4667 4.18616C70.1067 4.51949 69.7067 4.89283 69.3733 5.29283C68.8533 5.91949 68.2933 6.03949 67.5333 5.69283L67.4133 5.63949C65.9467 4.95949 65.88 4.83949 65.88 3.15949V2.91949C65.88 2.75949 65.88 2.59949 65.88 2.43949C65.8533 1.50616 65.6 1.25283 64.6533 1.23949C63.6533 1.22616 62.6267 1.22616 61.64 1.23949H60.5067C58.9467 1.23949 58.8133 1.38616 58.8 2.93283C58.8 4.98616 58.7067 5.11949 56.8 5.79949C56.44 5.93283 55.8933 5.77283 55.6133 5.54616C55.28 5.27949 54.9733 4.97283 54.68 4.66616C54.5333 4.51949 54.4 4.37283 54.2533 4.22616C53.64 3.62616 53.36 3.62616 52.7733 4.21283C52.1067 4.86616 51.4533 5.51949 50.8 6.18616L49.7733 7.21282C49.04 7.94616 48.9067 8.23949 48.92 8.46616C48.9333 8.65282 49.04 8.91949 49.7467 9.50616C51.12 10.6262 51.3467 11.7862 50.4533 13.1328C50.2667 13.4128 49.9067 13.7195 49.5333 13.7462C49.12 13.7862 48.6933 13.7862 48.2533 13.7728H48.0933C47.88 13.7728 47.68 13.7728 47.48 13.7728C46.7333 13.7995 46.44 14.0928 46.4267 14.8128C46.4 16.3462 46.4 17.9195 46.4267 19.5995C46.44 20.3862 46.72 20.6795 47.5067 20.7062C47.76 20.7195 48.04 20.7062 48.3067 20.7062C48.7467 20.7062 49.1467 20.6928 49.56 20.7328C49.9067 20.7595 50.32 21.0528 50.4533 21.3595C51.28 23.2395 51.2533 23.3995 49.7867 24.8795L49.6133 25.0395C49.5067 25.1462 49.4133 25.2395 49.32 25.3462C48.8267 25.8795 48.8133 26.2795 49.28 26.7595C50.4667 27.9862 51.6667 29.1862 52.84 30.3195C53.36 30.8262 53.7467 30.8128 54.3067 30.2795C54.52 30.0795 54.7333 29.8528 54.96 29.6395C55.2533 29.3462 55.5067 29.0928 55.76 28.8528C55.76 28.8528 56.2533 28.4128 56.68 28.5462C57.2 28.7195 57.72 28.9328 58.1867 29.1328L58.72 29.3595C58.84 29.4128 58.92 29.5195 58.92 29.6528V30.4928C58.92 31.0928 58.9067 31.6528 58.9333 32.2128C58.9467 32.8662 59.2133 33.1462 59.88 33.1862C60.1333 33.1995 60.3867 33.1995 60.6667 33.1995H61.0933C61.2667 33.1995 61.4133 33.3462 61.4133 33.5195V40.9728C61.4133 41.1462 61.28 41.2928 61.1067 41.2928C56.3067 41.4795 52.2 43.1462 48.9067 46.2395C48.7867 46.3595 48.5867 46.3595 48.4533 46.2395L38.1467 35.9462C38.08 35.8795 38.0533 35.7862 38.0533 35.6928C38.0533 35.5995 38.1067 35.5195 38.16 35.4662L38.3733 35.2928C38.5333 35.1728 38.7067 35.0262 38.8667 34.8795C39.5067 34.2395 39.5067 33.8528 38.8533 33.1862C38.7067 33.0262 38.5467 32.8795 38.3867 32.7195C38.0933 32.4395 37.76 32.1195 37.4667 31.7728C37.2533 31.5195 37.16 31.0795 37.2667 30.7728C37.9467 28.7728 38.08 28.6795 40.2267 28.6662H40.4133C40.5733 28.6662 40.72 28.6662 40.8667 28.6528C41.6 28.5995 41.8267 28.3462 41.84 27.6262C41.8533 25.9995 41.8533 24.3328 41.84 22.6662C41.84 21.8795 41.56 21.6128 40.76 21.5995C40.1067 21.5862 39.48 21.5728 38.8267 21.5995C38.2933 21.6528 38.0533 21.3462 37.8133 20.9595C36.9067 19.4795 37.16 18.3062 38.5733 17.3595C38.7067 17.2662 38.8267 17.1328 38.96 16.9728L39.0267 16.8928C39.5733 16.2662 39.3067 15.8528 39.0533 15.5862C37.7867 14.2795 36.5333 13.0262 35.32 11.8662C34.96 11.5195 34.56 11.5195 34.1333 11.8795C33.9733 12.0128 33.84 12.1595 33.68 12.3062L33.5067 12.4795C32.0667 13.9062 31.9067 13.9462 30.04 13.1462C29.72 13.0128 29.4 12.5728 29.36 12.1995C29.32 11.8128 29.32 11.4262 29.3333 11.0262C29.3333 10.7728 29.3333 10.5328 29.3333 10.3062C29.3333 9.59949 29.0667 9.34616 28.4133 9.33282C26.5867 9.30616 24.9067 9.30616 23.2933 9.33282C22.6667 9.34616 22.3733 9.62616 22.3333 10.2928C22.32 10.4528 22.32 10.6128 22.3333 10.7862V11.0128C22.3333 12.9462 22.2533 13.0795 20.5067 13.8395C19.8667 14.1195 19.4533 14.0395 19.0133 13.5595C18.6133 13.1195 18.1733 12.6928 17.7867 12.3195L17.72 12.2528C17.1867 11.7328 16.7467 11.7328 16.2533 12.2128C15.12 13.3328 13.9333 14.5062 12.7467 15.7195C12.2267 16.2395 12.2267 16.6528 12.7333 17.1995C12.9067 17.3862 13.1067 17.5728 13.2933 17.7595C13.5867 18.0395 13.8933 18.3462 14.16 18.6662C14.3733 18.9195 14.52 19.4395 14.4 19.7995C13.72 21.7462 13.5867 21.8395 11.4933 21.8395H11.2933C11.1467 21.8395 11.04 21.8395 10.92 21.8395C10.2533 21.8795 9.97333 22.1595 9.96 22.7995C9.93333 24.5062 9.93333 26.2262 9.96 27.9195C9.97333 28.5595 10.2667 28.8528 10.9067 28.8662C11.1467 28.8795 11.3867 28.8662 11.7067 28.8662C12.2133 28.8528 12.6267 28.8528 13.04 28.8928C13.4133 28.9328 13.7733 29.2395 13.96 29.5195C14.4267 30.2395 14.6 30.9195 14.48 31.5328C14.3467 32.1462 13.92 32.6795 13.2133 33.1328C13.1467 33.1728 13.08 33.2528 12.9733 33.3728L12.88 33.4795C12.36 34.0395 12.3733 34.4795 12.9067 35.0262C14.08 36.2262 15.24 37.3862 16.3467 38.4795C16.8533 38.9862 17.2933 38.9862 17.8133 38.4928C17.9867 38.3328 18.1467 38.1595 18.36 37.9462C18.6667 37.6262 18.96 37.3328 19.2933 37.0528C19.5467 36.8395 20.0533 36.6928 20.4267 36.8262C22.3733 37.5062 22.4667 37.6528 22.4667 39.7328V40.2395C22.48 41.1328 22.7467 41.3995 23.6267 41.3995C24.4133 41.3995 25.2 41.3995 25.9867 41.3995H27.8533C29.3467 41.3995 29.4933 41.2395 29.4933 39.7595C29.4933 37.6662 29.5867 37.5328 31.5333 36.8395C31.8933 36.7195 32.4133 36.8528 32.6667 37.0662C32.9867 37.3328 33.28 37.6395 33.5733 37.9328C33.7867 38.1462 33.9867 38.3595 34.2 38.5462C34.6667 38.9728 35.0933 38.9595 35.5733 38.5328C35.76 38.3595 35.9467 38.1728 36.12 37.9995L36.3333 37.7862C36.4667 37.6662 36.6667 37.6662 36.7867 37.7862L47.0133 48.0128C47.1333 48.1328 47.1467 48.3195 47.04 48.4395C44.0133 52.2795 42.64 56.6662 42.9333 61.4662C42.9333 61.5595 42.9067 61.6395 42.84 61.7062C42.7733 61.7728 42.6933 61.8128 42.6 61.8128H32.3467C32.1733 61.8128 32.0267 61.6661 32.0267 61.4928V61.1195C32.0267 60.8928 32.0267 60.6795 32.0267 60.4795C32 59.6395 31.72 59.3595 30.8933 59.3462C30.7733 59.3462 30.64 59.3462 30.52 59.3462H30.1733C28.3867 59.3462 28.2667 59.2662 27.56 57.6795C27.28 57.0262 27.2133 56.4928 27.8533 55.9728C28.24 55.6662 28.6 55.2662 28.8933 54.9595L29.0933 54.7462C29.6133 54.1862 29.6267 53.7728 29.1333 53.2662C28 52.1062 26.84 50.9328 25.5733 49.7062C25.0933 49.2395 24.68 49.2528 24.16 49.7462C23.6933 50.1862 23.2133 50.6528 22.7467 51.1728C22.28 51.6795 21.8133 51.5728 21.4667 51.4262C19.6133 50.6528 19.5333 50.5195 19.5333 48.5195V48.2928C19.5333 48.0928 19.5333 47.9462 19.5333 47.7995C19.52 46.9062 19.2533 46.6395 18.3867 46.6262C17.3333 46.6128 16.2667 46.6262 15.24 46.6262H14.08C12.64 46.6262 12.4933 46.7728 12.4933 48.2395C12.4933 50.3195 12.4 50.4528 10.4667 51.1728C10.1333 51.2928 9.61333 51.1995 9.33333 50.9595C9 50.6795 8.69333 50.3728 8.36 50.0128C8.16 49.8128 7.98667 49.6262 7.81333 49.4662C7.32 49.0128 6.90667 48.9995 6.45333 49.4262C5.25333 50.5862 4.04 51.7995 2.84 53.0395C2.37333 53.5195 2.38667 53.9328 2.88 54.4528L2.96 54.5462C3.34667 54.9595 3.74667 55.3862 4.17333 55.7462C4.82667 56.2928 4.69333 56.8395 4.48 57.3062L4.44 57.3862C3.69333 59.0262 3.56 59.1062 1.72 59.1062H1.16C0.226667 59.1328 0 59.3462 0 60.2395C0 61.8662 0 63.4795 0.0133333 65.0128C0.0133333 65.8528 0.28 66.1062 1.13333 66.1195C1.65333 66.1328 2.17333 66.1195 2.68 66.1195H3.54667C3.68 66.1195 3.8 66.1995 3.85333 66.3195C3.88 66.3995 3.92 66.4795 3.94667 66.5462L4.08 66.8395L4.21333 67.1728C4.34667 67.4928 4.46667 67.8128 4.56 68.1461C4.65333 68.4928 4.53333 69.0262 4.30667 69.3062C4.02667 69.6528 3.70667 69.9595 3.44 70.2128C3.25333 70.3995 3.05333 70.5862 2.88 70.7728C2.4 71.2928 2.4 71.6795 2.89333 72.1862C4.10667 73.4262 5.30667 74.6262 6.45333 75.7462C6.93333 76.2128 7.34667 76.1995 7.85333 75.7062C8.01333 75.5462 8.17333 75.3862 8.38667 75.1728C8.68 74.8662 9 74.5462 9.33333 74.2662C9.6 74.0395 10.0933 73.8928 10.4667 74.0262C12.4267 74.7062 12.52 74.8395 12.52 76.9328V77.1462C12.52 77.3062 12.52 77.4528 12.52 77.5862C12.56 78.3195 12.8133 78.5862 13.5067 78.5995C15.1333 78.6262 16.8267 78.6262 18.5467 78.5995C19.2533 78.5862 19.5467 78.2795 19.56 77.5328C19.56 77.2928 19.56 77.0528 19.56 76.7595C19.56 76.3195 19.5467 75.9062 19.5733 75.4795C19.5867 75.1728 19.8 74.7595 20.1067 74.6128C22.0133 73.6795 22.1733 73.7062 23.6533 75.1861L23.8267 75.3728C23.96 75.5061 24.0533 75.6128 24.16 75.7062C24.7067 76.2128 25.12 76.2128 25.64 75.7062C26.8533 74.5328 28.0267 73.3462 29.1467 72.1995C29.4 71.9328 29.52 71.7062 29.52 71.4795C29.52 71.2395 29.3733 70.9862 29.08 70.6928C28.9333 70.5462 28.7733 70.4128 28.6267 70.2795L28.5333 70.1995C28.2667 69.9595 27.8933 69.6262 27.5867 69.2795C27.3333 68.9995 27.2267 68.4795 27.3467 68.1461C28.0267 66.2262 28.1733 66.1328 30.2667 66.1328H30.6C31.64 66.1328 31.9067 65.8795 31.9067 64.8662V63.9195C31.9067 63.7462 32.0533 63.5995 32.2267 63.5995H37.0933C38.5867 63.5995 40.08 63.5995 41.5733 63.5995H42.1867C42.96 63.5995 43.1467 63.6795 43.3067 64.4662C43.3467 64.6262 43.3733 64.7995 43.4267 65.0128C45.4667 72.9728 53.2133 78.7728 61.3333 78.7728C62.0933 78.7728 62.84 78.7195 63.6 78.6262C72.9467 77.3462 79.68 69.9062 79.9867 60.5328C80.1067 56.8262 79.1733 53.2395 77.28 50.1595ZM64.1333 30.2262V30.9195C64.1333 31.0928 63.9867 31.2395 63.8133 31.2395H61.16C60.9867 31.2395 60.84 31.0928 60.84 30.9195V30.2795C60.84 29.8262 60.84 29.4128 60.84 28.9862C60.8267 28.1862 60.6533 27.9728 59.7867 27.6662C58.76 27.2928 57.76 26.8528 56.7867 26.3462C56.5467 26.2262 56.3467 26.1595 56.16 26.1595C55.92 26.1595 55.7067 26.2662 55.4933 26.4928C55.2133 26.7862 54.9333 27.0662 54.6533 27.3728L54 28.0528C53.88 28.1862 53.6667 28.1862 53.5467 28.0662L51.5467 26.2128C51.48 26.1462 51.44 26.0662 51.44 25.9728C51.44 25.8795 51.48 25.7995 51.5467 25.7328L53.12 24.2928C53.5333 23.9062 53.5867 23.5195 53.2933 22.9195C52.8 21.9328 52.36 20.8662 51.96 19.7595C51.7333 19.1328 51.44 18.9062 50.8533 18.9062H50.84C50.4267 18.9195 50.0267 18.9195 49.6 18.9062H48.76C48.5867 18.9062 48.44 18.7595 48.44 18.5862V15.9462C48.44 15.7728 48.5867 15.6262 48.7733 15.6262H49.48C49.92 15.6262 50.32 15.6262 50.72 15.6262C50.72 15.6262 50.7333 15.6262 50.7467 15.6262C51.4267 15.6262 51.7733 15.3595 52 14.6528C52.3333 13.6528 52.76 12.6395 53.28 11.6262C53.6 11.0128 53.5467 10.6128 53.12 10.1728C52.7867 9.82616 52.4667 9.47949 52.12 9.09282L51.6 8.61282C51.48 8.47949 51.4933 8.27949 51.6133 8.15949L53.5333 6.34616C53.6 6.27949 53.6933 6.25283 53.7733 6.25283C53.8667 6.25283 53.9467 6.29283 54 6.35949L54.36 6.75949C54.6667 7.11949 54.9733 7.46616 55.28 7.81283C55.68 8.27949 56.0533 8.34616 56.68 8.03949C57.64 7.57282 58.7067 7.11949 59.84 6.70616C60.4533 6.47949 60.6933 6.15949 60.7067 5.57282V3.50616C60.7067 3.33283 60.8533 3.18616 61.0267 3.18616H63.6533C63.8267 3.18616 63.9733 3.33283 63.9733 3.50616V4.13283C63.9733 4.58616 63.9733 5.06616 63.9733 5.53283C63.96 6.14616 64.2133 6.47949 64.8667 6.70616C65.9067 7.07949 66.9733 7.53282 68.0267 8.03949C68.6 8.31949 68.9733 8.27949 69.3467 7.89283C69.68 7.54616 70.0133 7.21282 70.3467 6.85282L70.84 6.34616C70.96 6.22616 71.16 6.21283 71.2933 6.33283L73.4 8.17283C73.4667 8.23949 73.5067 8.31949 73.5067 8.41282C73.5067 8.50616 73.4667 8.59949 73.4 8.65282L71.84 10.1062C71.4133 10.5062 71.3733 10.8662 71.68 11.4662C72.2 12.4795 72.6533 13.5462 73.0267 14.6395C73.24 15.2528 73.5467 15.4928 74.1333 15.5062C74.6 15.5062 75.0667 15.5062 75.5333 15.5062H76.2267C76.4 15.5062 76.5467 15.6528 76.5467 15.8262V18.4662C76.5467 18.6395 76.4 18.7862 76.2267 18.7862H75.4133C75.0133 18.7862 74.6133 18.7862 74.2 18.7862C73.5333 18.7862 73.2267 19.0262 73 19.7195C72.68 20.6928 72.2533 21.7062 71.68 22.8128C71.3733 23.3995 71.4133 23.7728 71.84 24.1728L73.3467 25.5995C73.4133 25.6662 73.4533 25.7462 73.4533 25.8262C73.4533 25.9062 73.4267 25.9995 73.36 26.0528L71.3467 28.0662C71.28 28.1328 71.2267 28.1595 71.1067 28.1595C71.0133 28.1595 70.9333 28.1195 70.8667 28.0528L70.32 27.4395C70.04 27.1328 69.76 26.8128 69.4667 26.5062C69.08 26.0928 68.7067 26.0528 68.1067 26.3595C67.04 26.9062 65.9067 27.3328 64.9467 27.6928C64.3467 27.9195 64.1067 28.2128 64.12 28.7462C64.1333 29.2395 64.1333 29.7195 64.1333 30.2262ZM66.08 72.2395C66.0933 73.2128 66.0933 74.1728 66.12 75.1195C66.1333 75.8128 65.8533 76.1595 65.16 76.2928C62.7867 76.7595 60.8667 76.8395 59.08 76.5728C58.36 76.4661 57.88 76.1995 57.8933 75.2395C57.8933 74.0928 57.88 72.9328 57.8533 71.7995C57.8267 70.6662 57.8133 69.5728 57.8133 68.4928C57.8133 67.6662 57.5733 67.2662 56.8267 66.8928C54.24 65.5995 52.5333 63.4528 52.0133 60.8662C51.4667 58.1195 52.2933 55.1328 54.24 52.8662C54.2933 52.7995 54.3733 52.7462 54.4667 52.6662L54.6667 52.5328C54.72 52.4795 54.8 52.4662 54.8667 52.4662C54.92 52.4662 54.96 52.4795 55.0133 52.5062C55.12 52.5595 55.2 52.6795 55.2 52.7995V53.3195C55.2 53.6395 55.2 53.9195 55.2 54.1995L55.2267 55.3862C55.24 56.4128 55.2667 57.4662 55.3067 58.5062C55.4133 60.7195 57.0933 62.3728 59.2933 62.4528C61.12 62.5195 62.8667 62.5062 64.4667 62.4528C66.8 62.3595 68.3867 60.7195 68.3867 58.3461C68.3867 57.9062 68.3867 57.4528 68.3733 57.0128L68.3467 55.5862C68.3467 54.9595 68.3467 54.3195 68.3467 53.6662V52.7728C68.3467 52.6395 68.4267 52.5328 68.5467 52.4795C68.6533 52.4262 68.8 52.4528 68.8933 52.5328C70.9733 54.4395 72.0533 57.7595 71.5867 60.7862C71.16 63.5062 69.56 65.6262 67.0533 66.7862C66.24 67.1595 65.9733 67.5995 66 68.4795C66.0533 69.7062 66.0667 70.9728 66.08 72.2395ZM67.92 69.1195C67.9333 68.5862 68.5867 68.1595 68.6533 68.1195C71.28 66.5062 72.8 64.4395 73.32 61.7862C74.12 57.6928 73.04 54.0662 70.1067 51.0262C69.4533 50.3462 68.6133 50.2128 67.6 50.6262C66.72 50.9728 66.2667 51.6395 66.2667 52.5995C66.2667 53.7862 66.3067 54.9862 66.3333 56.1462C66.3467 56.7462 66.3733 57.3462 66.3867 57.9595C66.4133 58.9062 66.2267 59.5462 65.8133 59.9728C65.4 60.3995 64.7467 60.5995 63.7867 60.5995H63.12H59.72C58.0667 60.5995 57.1733 59.7062 57.1467 58.0262C57.1067 56.0128 57.0667 54.3595 57.0133 52.8262C56.9733 51.6928 56.48 50.9595 55.52 50.6262C54.6133 50.3062 53.8 50.5728 53.0533 51.4262C49.8133 55.0795 49.0533 59.9862 51.0933 63.9062C52.0133 65.6795 53.36 67.0662 55.0667 68.0662C55.68 68.4261 55.9333 68.8528 55.92 69.5728C55.9067 70.8795 55.9067 72.2128 55.9067 73.4928V75.0128C55.9067 75.1061 55.8667 75.1995 55.8 75.2528C55.7467 75.3062 55.6667 75.3328 55.6267 75.3328C50.1733 74.6395 44.68 66.6262 44.76 59.4528C44.8533 50.9595 51.4267 43.9328 60.0533 43.0795C64.0667 42.6928 68.0933 43.8128 71.3867 46.2528C74.6933 48.6928 76.9867 52.2528 77.8533 56.2662C78.6933 60.1595 78.1467 64.2262 76.3333 67.7328C74.56 71.1328 71.72 73.7862 68.32 75.1995C68.2267 75.2395 68.1067 75.2262 68.0133 75.1728C67.92 75.1062 67.8667 75.0128 67.8667 74.9062V73.4395C67.88 71.9195 67.88 70.5195 67.92 69.1195ZM27.6533 38.2528V39.1195C27.6533 39.2928 27.5067 39.4395 27.3333 39.4395H24.6533C24.48 39.4395 24.3333 39.2928 24.3333 39.1062V38.4395C24.3333 37.9595 24.3333 37.5062 24.3333 37.0528C24.3467 36.4395 24.1067 36.1195 23.44 35.8928C22.3733 35.5195 21.32 35.0795 20.3467 34.5862C20.08 34.4528 19.8533 34.3862 19.6533 34.3862C19.3867 34.3862 19.1467 34.5195 18.9067 34.7728C18.6267 35.0795 18.36 35.3728 18.0667 35.6795L17.4933 36.2928C17.44 36.3595 17.3467 36.3995 17.2533 36.3995C17.1867 36.4128 17.08 36.3595 17.0133 36.2928L15.0133 34.2128C14.9467 34.1462 14.92 34.0662 14.92 33.9728C14.92 33.8795 14.96 33.7995 15.0267 33.7462L15.5733 33.2662C15.8933 32.9862 16.2267 32.7062 16.5467 32.4128C16.9867 32.0128 17.04 31.6262 16.7067 30.9862C16.2133 30.0262 15.7733 28.9862 15.4 27.8928C15.1867 27.2528 14.8933 27.0128 14.3067 27.0128H12.24C12.0667 27.0128 11.92 26.8662 11.92 26.6928V24.0128C11.92 23.8395 12.0667 23.6928 12.2533 23.6928H12.9867C13.4667 23.6928 13.8933 23.6928 14.3067 23.6928C14.8933 23.7195 15.2 23.5062 15.4267 22.8528C15.8533 21.6662 16.3867 20.5062 16.8 19.6262C17.0533 19.0928 17.0133 18.7328 16.6533 18.3728C16.3067 18.0395 15.96 17.6928 15.6 17.3462L15.0933 16.8528C15.0267 16.7862 15 16.7062 15 16.6128C15 16.5328 15.04 16.4395 15.0933 16.3862L17.0933 14.3995C17.1467 14.3462 17.24 14.3062 17.3333 14.3062C17.4267 14.3062 17.5067 14.3462 17.5733 14.4128L18 14.8928C18.32 15.2528 18.64 15.6128 18.96 15.9595C19.3467 16.3862 19.7333 16.4262 20.32 16.1328C21.36 15.5995 22.4267 15.1462 23.4933 14.7862C24.12 14.5728 24.3467 14.2662 24.3467 13.6795C24.3467 13.2262 24.3467 12.7595 24.3467 12.2795V11.5862C24.3467 11.4128 24.4933 11.2662 24.6667 11.2662H27.3467C27.52 11.2662 27.6667 11.4128 27.6667 11.5995V12.1995C27.6667 12.6528 27.6667 13.1195 27.6533 13.5862C27.6267 14.2528 27.88 14.5862 28.56 14.7995C29.56 15.1195 30.6 15.5728 31.6533 16.1195C32.2533 16.4262 32.6267 16.3862 33.0133 15.9728C33.3467 15.6262 33.6533 15.2662 33.9867 14.8928L34.4267 14.3995C34.48 14.3328 34.5733 14.2928 34.6267 14.2928C34.7733 14.3062 34.84 14.3328 34.8933 14.3862L36.8667 16.3728C36.9333 16.4395 36.96 16.5195 36.96 16.6128C36.96 16.6928 36.92 16.7862 36.8533 16.8395L35.3867 18.1995C34.96 18.5862 34.9067 18.9595 35.2133 19.5595C35.76 20.6395 36.2133 21.7062 36.56 22.7195C36.8 23.4262 37.1733 23.5728 37.6667 23.5728H38.5867H39.7467C39.92 23.5728 40.0667 23.7195 40.0667 23.8928V26.5595C40.0667 26.7328 39.92 26.8795 39.7333 26.8795H39.0133C38.5867 26.8795 38.1467 26.8795 37.7067 26.8662C37 26.8528 36.7333 27.1862 36.5333 27.7328C36.1867 28.7328 35.7467 29.7595 35.1867 30.8928C34.9067 31.4662 34.9467 31.8395 35.32 32.1995C35.6667 32.5328 36 32.8528 36.3733 33.1862L36.8933 33.6795C36.96 33.7462 37 33.8262 37 33.9195C37 34.0128 36.96 34.0928 36.8933 34.1595L34.8667 36.0128C34.7467 36.1195 34.5467 36.1195 34.4267 36.0128L33.92 35.5462C33.6133 35.2662 33.28 34.9595 32.96 34.6662C32.5867 34.3195 32.2267 34.2795 31.6933 34.5328C30.5467 35.0928 29.48 35.5328 28.4667 35.9062C27.88 36.1195 27.64 36.4128 27.6533 36.9595C27.6533 37.3862 27.6533 37.8128 27.6533 38.2528ZM26.4133 65.2128C26.0933 66.1861 25.6667 67.1995 25.1333 68.2395C24.8133 68.8661 24.8667 69.2662 25.3067 69.6662C25.5467 69.8928 25.7867 70.1062 26.04 70.3195L26.8267 71.0262C26.8933 71.0928 26.9333 71.1728 26.9333 71.2662C26.9333 71.3595 26.9067 71.4395 26.84 71.5062L24.72 73.5995C24.6667 73.6528 24.56 73.6795 24.48 73.6928C24.3867 73.6928 24.3067 73.6528 24.24 73.5728L23.8267 73.0795C23.52 72.7195 23.2133 72.3462 22.8933 71.9862C22.52 71.5728 22.16 71.5328 21.5333 71.8395C20.6 72.2928 19.56 72.7328 18.3733 73.1728C17.7733 73.3995 17.5333 73.6928 17.5333 74.2262C17.5333 74.7062 17.5333 75.1861 17.5333 75.6795V76.3728C17.5333 76.5462 17.3867 76.6928 17.2133 76.6928H14.5333C14.36 76.6928 14.2133 76.5462 14.2133 76.3595V75.6928C14.2133 75.1995 14.2133 74.6795 14.2133 74.1728C14.2267 73.5728 13.9867 73.2528 13.32 73.0262C12.3867 72.7062 11.4133 72.2795 10.16 71.6795C9.92 71.5595 9.72 71.5062 9.54667 71.5062C9.30667 71.5062 9.10667 71.5995 8.90667 71.8128C8.61333 72.1062 8.30667 72.4128 8 72.7462L7.38667 73.3862C7.25333 73.5195 7.02667 73.5062 6.92 73.3862L5 71.3462C4.94667 71.2795 4.90667 71.1995 4.90667 71.1195C4.90667 71.0262 4.94667 70.9462 5.01333 70.8928L6.48 69.5328C6.92 69.1195 6.97333 68.7328 6.64 68.1062C6.14667 67.1462 5.70667 66.1061 5.33333 65.0128C5.09333 64.3195 4.76 64.1728 4.24 64.1462H3.17333H2.24C2.06667 64.1462 1.92 63.9995 1.92 63.8262V61.1462C1.92 60.9728 2.06667 60.8262 2.24 60.8262H3.02667C3.45333 60.8262 3.89333 60.8262 4.32 60.8262C4.32 60.8262 4.32 60.8262 4.33333 60.8262C4.82667 60.8262 5.21333 60.6661 5.45333 59.9195C5.81333 58.8528 6.25333 57.7995 6.77333 56.8262C7.09333 56.2262 7.04 55.8395 6.56 55.4128C6.26667 55.1462 5.98667 54.8928 5.69333 54.6128L5.14667 54.1062C5.08 54.0395 5.04 53.9595 5.04 53.8795C5.04 53.7862 5.06667 53.7062 5.13333 53.6395L7.05333 51.7195C7.18667 51.5862 7.4 51.5995 7.52 51.7195L8.97333 53.2262C9.37333 53.6395 9.74667 53.6795 10.3333 53.3728C11.28 52.8928 12.32 52.4528 13.5067 52.0262C14.12 51.8128 14.36 51.4928 14.3467 50.9195C14.3467 50.4928 14.3467 50.0662 14.3467 49.6128V48.8262C14.3467 48.6528 14.4933 48.5062 14.6667 48.5062H17.3067C17.48 48.5062 17.6267 48.6528 17.6267 48.8262V50.8395C17.6267 51.5062 17.8933 51.8395 18.56 52.0528C19.5733 52.3728 20.5333 52.8128 21.52 53.2928C22.3333 53.6795 22.6 53.6528 23.1733 53.0662C23.4667 52.7595 23.76 52.4528 24.0533 52.1462L24.44 51.7328C24.56 51.5995 24.7867 51.6128 24.9067 51.7328L26.8933 53.7595C26.96 53.8262 26.9867 53.9062 26.9867 53.9995C26.9867 54.0928 26.9467 54.1728 26.88 54.2262L26.44 54.6262C26.0667 54.9595 25.7333 55.2528 25.4 55.5595C24.9867 55.9462 24.9333 56.3328 25.2267 56.9328C25.6933 57.8928 26.1333 58.9195 26.56 60.0928C26.7867 60.7195 27.08 60.9462 27.6667 60.9462C28.1333 60.9328 28.6 60.9462 29.08 60.9462H29.7467C29.92 60.9462 30.0667 61.0928 30.0667 61.2662V63.9062C30.0667 64.0795 29.92 64.2262 29.7333 64.2262H28.96C28.5333 64.2262 28.08 64.2262 27.6267 64.2262C27.0933 64.2395 26.6667 64.4128 26.4133 65.2128Z" fill="#4482B6"/>
<path d="M34.1896 25.267C34.1896 23.0537 33.3362 20.9737 31.7762 19.427C30.2296 17.8803 28.1496 17.0137 25.9362 17.0137H25.9096C23.7362 17.0137 21.6696 17.8803 20.0962 19.4403C18.5229 21.0137 17.6562 23.0803 17.6562 25.2803C17.6562 27.5203 18.5229 29.6137 20.0829 31.1737C21.6296 32.7203 23.7096 33.5737 25.9629 33.5737C28.1762 33.5603 30.2562 32.6937 31.8029 31.147C33.3496 29.5737 34.1896 27.4937 34.1896 25.267ZM25.9229 31.987L25.9096 31.6537C22.4029 31.6537 19.5362 28.787 19.5496 25.267C19.5496 23.587 20.2162 22.0003 21.4296 20.787C22.6429 19.5737 24.2429 18.907 25.9229 18.907C27.6162 18.907 29.2162 19.587 30.4296 20.8003C31.6296 22.0137 32.2962 23.6137 32.2962 25.307C32.2829 28.867 29.4829 31.6537 25.9362 31.6537V31.987H25.9229Z" fill="#EC6A30"/>
<path d="M15.9998 54.4004H15.9732C11.4265 54.4004 7.70651 58.0804 7.67984 62.6004C7.66651 64.8404 8.50651 66.9204 10.0398 68.4671C11.5865 70.0271 13.6798 70.8804 15.9465 70.8937C18.1732 70.8937 20.2532 70.0404 21.7998 68.5071C23.3465 66.9604 24.1998 64.8937 24.1998 62.6671C24.2265 58.0537 20.6132 54.4137 15.9998 54.4004ZM15.9732 69.3871L15.9598 69.0537C12.5065 69.0537 9.58651 66.1337 9.57318 62.6804C9.57318 61.0004 10.2398 59.4004 11.4665 58.1737C12.6798 56.9471 14.2665 56.2804 15.9465 56.2804C17.6265 56.2804 19.2132 56.9471 20.4398 58.1737C21.6665 59.4004 22.3332 61.0004 22.3332 62.6671C22.3332 66.1871 19.4798 69.0537 15.9732 69.0537V69.3871Z" fill="#EC6A30"/>
<path d="M70.6553 17.12C70.6419 12.6133 66.9486 8.95996 62.3886 8.95996C60.1353 8.97329 58.0419 9.82663 56.5086 11.3733C54.9753 12.92 54.1353 15.0133 54.1486 17.2666C54.1753 21.8533 57.8019 25.4533 62.4019 25.4533C67.0553 25.44 70.6686 21.7733 70.6553 17.12ZM62.4286 23.6C58.8819 23.56 56.0019 20.68 56.0153 17.1866C56.0286 15.5466 56.7219 13.9066 57.9353 12.7066C59.1486 11.5066 60.7753 10.8266 62.4019 10.8266C64.0686 10.84 65.7219 11.5333 66.9219 12.76C68.1219 13.9733 68.8019 15.6133 68.7886 17.2533C68.7753 18.9066 68.0686 20.5466 66.8419 21.76C65.6153 22.9333 64.0553 23.6 62.4286 23.6Z" fill="#EC6A30"/>
</svg>
