<svg width="81" height="80" viewBox="0 0 81 80" fill="none" xmlns="http://www.w3.org/2000/svg">
<path d="M70.4335 8.76V0H4.84688L4.04688 0.0266667V73.7467L13.3269 73.8H14.1002V80H76.6335V8.76H70.4335ZM6.66021 2.54667H67.8602V71.24H6.66021V2.54667ZM16.6602 73.8133H70.4069V11.3067H74.1135V77.5067H16.6602V73.8133Z" fill="#4482B6"/>
<path d="M55.3951 45.0671H52.9018V64.9872H47.8751V38.8271H45.3418V64.9738H40.3684V46.3338H37.8751V64.9872H32.8751V55.0938H30.3551V64.9872H25.3684V55.0938H22.8484V65.0005H17.8618V48.8138H15.3684V65.0405H11.6484V67.5072H62.8351V65.0005H55.3951V45.0671Z" fill="#EC6A30"/>
<path d="M17.2579 39.3869C17.8179 39.3869 18.3645 39.2669 18.8845 39.0002C20.4579 38.2135 21.2845 36.5202 20.8845 34.8802C20.7645 34.3735 20.9245 34.1335 21.2845 33.8535C23.5245 32.0669 25.7512 30.2535 27.9779 28.4402L28.2179 28.2402C28.8579 27.6935 29.5245 27.1469 30.5245 27.4802L30.8445 27.5869L30.9379 27.4802C31.0045 27.4935 31.0712 27.5069 31.1645 27.5335C31.4312 27.5869 31.7112 27.6402 31.8979 27.7869C32.4845 28.2402 33.0445 28.7202 33.6312 29.2269C34.2045 29.7202 34.7779 30.2002 35.3779 30.6669C35.8045 31.0135 35.8712 31.2802 35.6579 31.8002C34.9112 33.6402 35.7645 35.7202 37.6045 36.5602C38.5112 36.9735 39.5512 37.0002 40.4712 36.6402C41.3512 36.3069 42.0445 35.6535 42.4312 34.8135C42.6712 34.2802 42.7645 33.6935 42.8712 32.9735C42.9245 32.6669 42.9645 32.3469 43.0312 32.0269L44.3645 31.4802C46.1779 30.7335 48.0979 29.9335 50.0312 29.1602C50.2045 29.0935 50.5112 29.1602 50.6712 29.2669C52.4045 30.3869 54.1912 30.2269 55.5645 28.8402C56.8712 27.5202 57.0179 25.7202 55.9512 24.0535C55.8179 23.8402 55.7912 23.4669 55.8845 23.2135C56.3512 22.0135 56.8445 20.8269 57.3379 19.6535L57.7645 18.6402C57.8045 18.5335 57.8712 18.4269 57.9379 18.2935L58.0712 18.0535L59.0979 20.7202L61.4312 19.8535L58.9112 13.2002L52.2579 15.7069L53.1512 18.0269L55.6712 17.1069L55.1512 18.3735C54.5912 19.7202 54.0712 21.0002 53.5112 22.2669C53.4579 22.4002 53.1245 22.4935 52.8579 22.5069C50.7379 22.5869 49.1779 24.1469 49.1512 26.2269C49.1512 26.6802 49.0179 26.8669 48.6312 27.0269C47.6312 27.4269 46.6312 27.8402 45.6445 28.2535C44.3779 28.7735 43.0979 29.2935 41.8179 29.8002C41.5379 29.9069 41.1245 29.9069 40.8312 29.7735C39.9112 29.3869 39.1645 29.2935 38.4179 29.4535C38.1912 29.5069 37.8845 29.5069 37.7379 29.3869C36.6579 28.5069 35.5912 27.6135 34.5379 26.7202L33.5112 25.8535C34.4712 23.8402 34.1779 22.0135 32.7379 20.8269C31.4445 19.7735 29.5245 19.7069 28.1912 20.6669C26.6045 21.8135 26.2579 23.5469 27.1645 25.8269L27.0445 25.9335C26.9379 26.0269 26.8445 26.1202 26.7379 26.2002L24.6979 27.8402C23.0179 29.2002 21.3245 30.5602 19.6579 31.9335C19.2579 32.2669 18.9645 32.3202 18.4979 32.1335C16.9645 31.5069 15.0712 32.1069 14.1245 33.5069C13.1912 34.8935 13.2845 36.8002 14.3645 38.0402C15.1245 38.9335 16.1912 39.3869 17.2579 39.3869ZM16.0179 35.4669C16.0845 34.8402 16.5912 34.4135 17.2312 34.4135C17.2712 34.4135 17.3112 34.4135 17.3512 34.4135C17.6979 34.4402 18.0179 34.6002 18.2179 34.8402C18.4179 35.0802 18.5245 35.4002 18.4845 35.7335C18.4312 36.3735 17.8845 36.8802 17.2445 36.8802H17.1379C16.7912 36.8535 16.4845 36.6935 16.2845 36.4402C16.0712 36.1735 15.9779 35.8269 16.0179 35.4669ZM29.1379 23.7602C29.1379 23.0669 29.6712 22.5069 30.3779 22.5069C31.0579 22.5069 31.6179 23.0669 31.6312 23.7335C31.6312 24.0669 31.5112 24.3735 31.2712 24.6135C31.0312 24.8535 30.7245 24.9869 30.3779 24.9869C29.6845 25.0002 29.1379 24.4535 29.1379 23.7602ZM39.1379 34.3735C38.4179 34.3735 37.8979 33.8535 37.8979 33.1335C37.8979 32.7869 38.0179 32.4669 38.2579 32.2402C38.4979 32.0002 38.7512 31.8935 39.0712 31.8935C39.0979 31.8935 39.1112 31.8935 39.1379 31.8935C39.8445 31.9069 40.3912 32.4402 40.3912 33.1335C40.3779 33.8269 39.8312 34.3735 39.1379 34.3735ZM51.6445 26.2135C51.6712 25.5469 52.2445 25.0002 52.8979 25.0002C52.9112 25.0002 52.9245 25.0002 52.9379 25.0002C53.6179 25.0269 54.1512 25.6002 54.1379 26.2935C54.1379 26.6269 54.0045 26.9335 53.7645 27.1469C53.5379 27.3602 53.2312 27.4802 52.8579 27.4802C52.5245 27.4669 52.2179 27.3202 51.9779 27.0802C51.7512 26.8535 51.6312 26.5335 51.6445 26.2135Z" fill="#EC6A30"/>
</svg>
