<svg width="24" height="24" viewBox="0 0 24 24" fill="none" xmlns="http://www.w3.org/2000/svg">
<path opacity="0.4" d="M20.6172 8.45C19.5672 3.83 15.5372 1.75 11.9972 1.75C11.9972 1.75 11.9972 1.75 11.9872 1.75C8.45717 1.75 4.41717 3.82 3.36717 8.44C2.19717 13.6 5.35717 17.97 8.21717 20.72C9.27717 21.74 10.6372 22.25 11.9972 22.25C13.3572 22.25 14.7172 21.74 15.7672 20.72C18.6272 17.97 21.7872 13.61 20.6172 8.45Z" fill="#3B719F"/>
<path d="M12.0016 13.4602C13.7413 13.4602 15.1516 12.0499 15.1516 10.3102C15.1516 8.57046 13.7413 7.16016 12.0016 7.16016C10.2619 7.16016 8.85156 8.57046 8.85156 10.3102C8.85156 12.0499 10.2619 13.4602 12.0016 13.4602Z" fill="#3B719F"/>
</svg>
