<svg width="24" height="24" viewBox="0 0 24 24" fill="none" xmlns="http://www.w3.org/2000/svg">
<path opacity="0.4" d="M17 20.5H7C4 20.5 2 19 2 15.5V8.5C2 5 4 3.5 7 3.5H17C20 3.5 22 5 22 8.5V15.5C22 19 20 20.5 17 20.5Z" fill="#EC6A30"/>
<path d="M12.0027 12.87C11.1627 12.87 10.3127 12.61 9.66271 12.08L6.53271 9.57997C6.21271 9.31997 6.15271 8.84997 6.41271 8.52997C6.67271 8.20997 7.14271 8.14997 7.46271 8.40997L10.5927 10.91C11.3527 11.52 12.6427 11.52 13.4027 10.91L16.5327 8.40997C16.8527 8.14997 17.3327 8.19997 17.5827 8.52997C17.8427 8.84997 17.7927 9.32997 17.4627 9.57997L14.3327 12.08C13.6927 12.61 12.8427 12.87 12.0027 12.87Z" fill="#EC6A30"/>
</svg>
