<svg width="98" height="17" viewBox="0 0 98 17" fill="none" xmlns="http://www.w3.org/2000/svg">
<path d="M1.06399 7.82177L4.36567 10.9316L3.44853 15.2666C3.35682 15.832 3.54025 16.3975 3.99881 16.6802C4.18224 16.8686 4.45738 16.9629 4.73252 16.9629C4.91594 16.9629 5.09937 16.9629 5.2828 16.8686C5.2828 16.8686 5.37451 16.8686 5.37451 16.7744L9.13475 14.6069L12.895 16.7744C12.895 16.7744 12.9867 16.7744 12.9867 16.8686C13.4453 17.0571 13.9955 17.0571 14.3624 16.7744C14.821 16.4917 15.0044 15.9263 14.9127 15.3608L13.9955 11.0259C14.3624 10.7432 14.9127 10.1777 15.4629 9.6123L17.2055 8.01025L17.2972 7.91601C17.6641 7.53906 17.7558 6.97363 17.5723 6.50244C17.3889 6.03125 17.0221 5.65429 16.4718 5.56006H16.3801L12.0696 5.08886L10.327 1.03662C10.327 1.03662 10.327 0.942382 10.2353 0.942382C10.1436 0.282715 9.68502 0 9.22646 0C8.76789 0 8.30933 0.282715 8.03419 0.753906C8.03419 0.753906 8.03419 0.848144 7.94248 0.848144L6.19993 4.90039L1.88941 5.37158H1.7977C1.33913 5.46582 0.880568 5.84277 0.697142 6.31396C0.605428 6.87939 0.697141 7.44482 1.06399 7.82177Z" fill="#F1936A"/>
<path d="M21.064 7.82177L24.3657 10.9316L23.4485 15.2666C23.3568 15.832 23.5402 16.3975 23.9988 16.6802C24.1822 16.8686 24.4574 16.9629 24.7325 16.9629C24.9159 16.9629 25.0994 16.9629 25.2828 16.8686C25.2828 16.8686 25.3745 16.8686 25.3745 16.7744L29.1347 14.6069L32.895 16.7744C32.895 16.7744 32.9867 16.7744 32.9867 16.8686C33.4453 17.0571 33.9955 17.0571 34.3624 16.7744C34.821 16.4917 35.0044 15.9263 34.9127 15.3608L33.9955 11.0259C34.3624 10.7432 34.9127 10.1777 35.4629 9.6123L37.2055 8.01025L37.2972 7.91601C37.6641 7.53906 37.7558 6.97363 37.5723 6.50244C37.3889 6.03125 37.0221 5.65429 36.4718 5.56006H36.3801L32.0696 5.08886L30.327 1.03662C30.327 1.03662 30.327 0.942382 30.2353 0.942382C30.1436 0.282715 29.685 0 29.2265 0C28.7679 0 28.3093 0.282715 28.0342 0.753906C28.0342 0.753906 28.0342 0.848144 27.9425 0.848144L26.1999 4.90039L21.8894 5.37158H21.7977C21.3391 5.46582 20.8806 5.84277 20.6971 6.31396C20.6054 6.87939 20.6971 7.44482 21.064 7.82177Z" fill="#F1936A"/>
<path d="M41.064 7.82177L44.3657 10.9316L43.4485 15.2666C43.3568 15.832 43.5402 16.3975 43.9988 16.6802C44.1822 16.8686 44.4574 16.9629 44.7325 16.9629C44.9159 16.9629 45.0994 16.9629 45.2828 16.8686C45.2828 16.8686 45.3745 16.8686 45.3745 16.7744L49.1347 14.6069L52.895 16.7744C52.895 16.7744 52.9867 16.7744 52.9867 16.8686C53.4453 17.0571 53.9955 17.0571 54.3624 16.7744C54.821 16.4917 55.0044 15.9263 54.9127 15.3608L53.9955 11.0259C54.3624 10.7432 54.9127 10.1777 55.4629 9.6123L57.2055 8.01025L57.2972 7.91601C57.6641 7.53906 57.7558 6.97363 57.5723 6.50244C57.3889 6.03125 57.0221 5.65429 56.4718 5.56006H56.3801L52.0696 5.08886L50.327 1.03662C50.327 1.03662 50.327 0.942382 50.2353 0.942382C50.1436 0.282715 49.685 0 49.2265 0C48.7679 0 48.3093 0.282715 48.0342 0.753906C48.0342 0.753906 48.0342 0.848144 47.9425 0.848144L46.1999 4.90039L41.8894 5.37158H41.7977C41.3391 5.46582 40.8806 5.84277 40.6971 6.31396C40.6054 6.87939 40.6971 7.44482 41.064 7.82177Z" fill="#F1936A"/>
<path d="M61.064 7.82177L64.3657 10.9316L63.4485 15.2666C63.3568 15.832 63.5402 16.3975 63.9988 16.6802C64.1822 16.8686 64.4574 16.9629 64.7325 16.9629C64.9159 16.9629 65.0994 16.9629 65.2828 16.8686C65.2828 16.8686 65.3745 16.8686 65.3745 16.7744L69.1347 14.6069L72.895 16.7744C72.895 16.7744 72.9867 16.7744 72.9867 16.8686C73.4453 17.0571 73.9955 17.0571 74.3624 16.7744C74.821 16.4917 75.0044 15.9263 74.9127 15.3608L73.9955 11.0259C74.3624 10.7432 74.9127 10.1777 75.4629 9.6123L77.2055 8.01025L77.2972 7.91601C77.6641 7.53906 77.7558 6.97363 77.5723 6.50244C77.3889 6.03125 77.0221 5.65429 76.4718 5.56006H76.3801L72.0696 5.08886L70.327 1.03662C70.327 1.03662 70.327 0.942382 70.2353 0.942382C70.1436 0.282715 69.685 0 69.2265 0C68.7679 0 68.3093 0.282715 68.0342 0.753906C68.0342 0.753906 68.0342 0.848144 67.9425 0.848144L66.1999 4.90039L61.8894 5.37158H61.7977C61.3391 5.46582 60.8806 5.84277 60.6971 6.31396C60.6054 6.87939 60.6971 7.44482 61.064 7.82177Z" fill="#F1936A"/>
<path d="M81.064 7.82177L84.3657 10.9316L83.4485 15.2666C83.3568 15.832 83.5402 16.3975 83.9988 16.6802C84.1822 16.8686 84.4574 16.9629 84.7325 16.9629C84.9159 16.9629 85.0994 16.9629 85.2828 16.8686C85.2828 16.8686 85.3745 16.8686 85.3745 16.7744L89.1347 14.6069L92.895 16.7744C92.895 16.7744 92.9867 16.7744 92.9867 16.8686C93.4453 17.0571 93.9955 17.0571 94.3624 16.7744C94.821 16.4917 95.0044 15.9263 94.9127 15.3608L93.9955 11.0259C94.3624 10.7432 94.9127 10.1777 95.4629 9.6123L97.2055 8.01025L97.2972 7.91601C97.6641 7.53906 97.7558 6.97363 97.5723 6.50244C97.3889 6.03125 97.0221 5.65429 96.4718 5.56006H96.3801L92.0696 5.08886L90.327 1.03662C90.327 1.03662 90.327 0.942382 90.2353 0.942382C90.1436 0.282715 89.685 0 89.2265 0C88.7679 0 88.3093 0.282715 88.0342 0.753906C88.0342 0.753906 88.0342 0.848144 87.9425 0.848144L86.1999 4.90039L81.8894 5.37158H81.7977C81.3391 5.46582 80.8806 5.84277 80.6971 6.31396C80.6054 6.87939 80.6971 7.44482 81.064 7.82177Z" fill="#F1936A"/>
</svg>
