<svg width="81" height="80" viewBox="0 0 81 80" fill="none" xmlns="http://www.w3.org/2000/svg">
<path d="M3.52344 35.4003C3.52344 25.8803 3.52344 16.3737 3.52344 6.85366C3.53677 2.86699 5.72344 0.666992 9.69677 0.666992C24.4568 0.666992 39.2034 0.666992 53.9634 0.666992C58.0434 0.666992 60.1768 2.84033 60.1901 6.97366C60.1901 16.907 60.2168 26.8403 60.1634 36.787C60.1634 38.0937 60.4701 38.667 61.8568 39.027C70.5101 41.2537 76.7368 48.947 77.1368 57.7203C77.5501 66.747 72.1901 74.9203 63.8168 78.0403C55.4168 81.1737 46.0168 78.5203 40.4834 71.3603C39.7101 70.347 38.9368 70.0403 37.7234 70.0537C28.5234 70.107 19.3234 70.0937 10.1234 70.0803C5.60344 70.0803 3.5501 68.0003 3.5501 63.4803C3.52344 54.107 3.52344 44.747 3.52344 35.4003ZM58.1901 38.2937C58.2301 37.6937 58.2834 37.227 58.2834 36.7603C58.2834 26.827 58.2968 16.8937 58.2834 6.96033C58.2834 3.84033 56.9634 2.56033 53.8168 2.56033C39.1768 2.56033 24.5368 2.56033 9.88344 2.56033C6.73677 2.56033 5.4301 3.85366 5.4301 6.96033C5.4301 25.8803 5.4301 44.787 5.4301 63.707C5.4301 66.8137 6.7501 68.147 9.85677 68.147C16.3634 68.1603 22.8568 68.147 29.3634 68.147C32.2568 68.147 35.1368 68.147 38.2834 68.147C35.0968 60.8937 35.2434 53.947 39.5901 47.467C43.9368 40.987 50.2301 38.067 58.1901 38.2937ZM38.0568 58.9337C38.1501 69.267 46.5634 77.5203 56.8568 77.4137C67.1368 77.2937 75.3101 68.907 75.2434 58.5203C75.1901 48.387 66.6834 40.1203 56.4301 40.2137C46.2034 40.307 37.9634 48.7203 38.0568 58.9337Z" fill="#4482B6"/>
<path d="M38.7634 29.5204C35.1234 29.5204 31.4834 29.5204 27.8434 29.5204C27.5234 29.5204 27.1501 29.627 26.9101 29.4937C26.7501 29.4004 26.5901 29.2937 26.4301 29.1737C25.9501 28.8004 25.9901 28.0537 26.5101 27.7604C26.6301 27.6937 26.7501 27.6537 26.8701 27.6537C34.7768 27.6004 42.6968 27.6004 50.6034 27.667C50.8034 27.667 51.0168 27.8137 51.2168 27.987C51.5901 28.3204 51.5501 28.9204 51.1368 29.2004C50.9101 29.3604 50.6834 29.4804 50.4701 29.4804C46.5768 29.5604 42.6701 29.5204 38.7634 29.5204Z" fill="#EC6A30"/>
<path d="M38.9078 15.2264C35.0545 15.2264 31.1878 15.2664 27.3345 15.1864C26.7478 15.1731 25.7478 14.6797 25.6945 14.2931C25.5478 13.2397 26.5212 13.3197 27.2545 13.3197C34.9212 13.3197 42.5878 13.3064 50.2412 13.3331C50.7345 13.3331 51.2545 13.5197 51.6812 13.7597C51.8412 13.8397 51.9078 14.4931 51.7878 14.5864C51.4145 14.8797 50.9212 15.1997 50.4812 15.1997C46.6278 15.2531 42.7745 15.2264 38.9078 15.2264Z" fill="#EC6A30"/>
<path d="M15.3906 13.4402C16.0172 12.7202 16.5106 12.0002 17.1506 11.4802C17.3506 11.3202 17.6306 11.2536 17.9372 11.2136C18.3106 11.1602 18.6439 11.4402 18.6706 11.8002C18.6972 12.1069 18.6972 12.4002 18.5639 12.6136C18.0706 13.4136 17.3772 14.0802 16.6706 14.9202C17.3372 15.7069 18.0572 16.4136 18.5639 17.2402C18.6039 17.3069 18.6306 17.3736 18.6439 17.4402C18.8306 18.1736 18.0572 18.8136 17.3639 18.5336C17.2839 18.5069 17.2172 18.4669 17.1506 18.4136C16.5106 17.8936 16.0172 17.1736 15.3906 16.4402C14.7906 17.1202 14.2972 17.8402 13.6572 18.3336C13.5106 18.4536 13.3239 18.5069 13.1106 18.5469C12.5372 18.6669 12.0172 18.1736 12.1106 17.5869C12.1372 17.4402 12.1772 17.2936 12.2439 17.1736C12.7372 16.3869 13.4306 15.7202 14.0972 14.9469C13.4039 14.1202 12.6972 13.4002 12.1639 12.5736C12.1372 12.5069 12.1106 12.4536 12.0839 12.3736C11.9106 11.7202 12.5372 11.1069 13.2039 11.2536C13.3372 11.2802 13.4572 11.3336 13.5506 11.4002C14.2306 11.9602 14.7506 12.7069 15.3906 13.4402Z" fill="#EC6A30"/>
<path d="M33.3917 41.9073C35.4451 41.9073 37.5117 41.8406 39.5517 41.9473C39.7917 41.9606 40.0317 42.094 40.2584 42.2673C40.6717 42.574 40.6584 43.1873 40.2451 43.4673C40.0051 43.6406 39.7651 43.7606 39.5251 43.7606C35.4184 43.8406 31.2984 43.8406 27.1917 43.774C26.9517 43.774 26.7117 43.654 26.4584 43.494C26.0184 43.214 26.0184 42.5873 26.4317 42.294C26.6851 42.1073 26.9517 41.9606 27.2184 41.9473C29.2851 41.8406 31.3384 41.9073 33.3917 41.9073Z" fill="#EC6A30"/>
<path d="M15.5252 57.5609C17.6319 55.9076 19.5786 54.3076 21.6052 52.8143C22.0452 52.4943 23.0586 52.2676 23.3252 52.5209C24.0986 53.2409 23.3652 53.801 22.7652 54.2676C20.6586 55.9343 18.5252 57.5743 16.4452 59.2676C15.6319 59.9343 14.9919 59.961 14.3119 59.1076C13.6186 58.241 12.8052 57.4676 12.1919 56.5609C12.1519 56.5076 12.1252 56.4276 12.0986 56.3609C11.9119 55.6409 12.6852 55.001 13.3786 55.2943C13.4586 55.3343 13.5386 55.3743 13.6052 55.4276C14.2986 55.9876 14.8186 56.7476 15.5252 57.5609Z" fill="#EC6A30"/>
<path d="M15.5351 43.2533C17.5751 41.6399 19.5218 40.0399 21.5618 38.5599C21.7751 38.3999 22.0685 38.3466 22.3751 38.3066C22.8951 38.2533 23.2951 38.7599 23.1351 39.2533C23.0418 39.5466 22.9085 39.8133 22.7085 39.9866C20.7085 41.6933 18.5751 43.2533 16.5351 44.9199C15.6685 45.6266 15.0018 45.6933 14.2818 44.7599C13.6685 43.9733 12.9085 43.2799 12.3751 42.4533C12.2685 42.2933 12.2285 42.1066 12.1885 41.9066C12.1085 41.3599 12.5885 40.9066 13.1218 41.0399C13.3751 41.1066 13.6018 41.1866 13.7885 41.3333C14.4285 41.8266 14.9085 42.5466 15.5351 43.2533Z" fill="#EC6A30"/>
<path d="M15.5201 28.9607C17.6267 27.3074 19.5867 25.7074 21.6267 24.214C21.7867 24.094 21.9867 24.0407 22.2134 24.0007C22.7867 23.9074 23.2667 24.454 23.0934 25.014C23.0001 25.2807 22.8934 25.5207 22.7067 25.6807C20.6934 27.4007 18.5734 28.974 16.5201 30.6407C15.6667 31.334 14.9734 31.4007 14.2534 30.4674C13.5734 29.5874 12.7601 28.814 12.1467 27.894C12.0267 27.7207 12.0267 27.4674 12.0534 27.2007C12.0934 26.814 12.4267 26.5207 12.8134 26.534C13.0801 26.5474 13.3334 26.574 13.4934 26.7207C14.2001 27.3207 14.7734 28.1074 15.5201 28.9607Z" fill="#EC6A30"/>
<path d="M30.2836 58.0934C29.1236 58.0934 27.9636 58.1734 26.8302 58.0534C26.5769 58.0267 26.3502 57.8401 26.1236 57.6267C25.8569 57.3734 25.8569 56.9467 26.1102 56.6934C26.3369 56.4667 26.5769 56.2667 26.8169 56.2534C29.0702 56.1601 31.3369 56.1601 33.5902 56.2401C33.8569 56.2534 34.1102 56.4934 34.3636 56.7467C34.5902 56.9734 34.5902 57.3467 34.3636 57.5734C34.1236 57.8134 33.8702 58.0267 33.5902 58.0667C32.4969 58.1734 31.3769 58.0934 30.2836 58.0934Z" fill="#EC6A30"/>
<path d="M67.8809 67.5337C67.6409 66.2537 66.3209 65.4404 65.1076 65.9204C64.5209 66.147 63.9876 66.5737 63.4409 67.227C59.9343 71.4804 53.3476 71.4137 49.8409 67.1204C49.1209 66.2537 48.4143 65.827 47.5743 65.7204C46.6676 65.6137 45.8409 66.2804 45.7209 67.187C45.6143 67.907 45.5076 68.6404 45.3076 69.347C45.2676 69.4804 45.2009 69.6004 45.1209 69.7204C44.7209 70.2404 43.8943 70.147 43.6409 69.547C43.5743 69.4004 43.5343 69.267 43.4943 69.1204C43.4009 68.6804 43.6009 68.187 43.6809 67.7204C44.3076 64.147 44.3076 64.147 47.7743 63.6404C47.7076 62.707 47.6276 61.7737 47.6009 60.8404C47.5743 59.9604 47.6009 59.067 47.6009 58.027C46.9209 58.027 46.1476 58.267 45.4809 58.0004C44.8009 57.7204 44.2543 57.3204 44.0676 56.7737C43.5876 55.2937 43.4143 53.6937 43.2276 52.1204C43.2009 51.8537 43.6943 51.2537 43.9209 51.267C44.2943 51.2937 44.8676 51.6137 44.9743 51.9337C45.2409 52.7737 45.3743 53.6804 45.4409 54.5737C45.5209 55.8404 46.0143 56.4404 47.5209 55.987C47.8543 52.4537 49.5609 49.6404 52.8409 47.947C52.6009 47.147 52.2409 46.467 52.2276 45.7604C52.2276 45.547 52.3476 45.3204 52.5076 45.107C52.7876 44.7204 53.3343 44.667 53.6943 44.9737C53.8409 45.0937 53.9476 45.227 54.0143 45.387C54.3476 46.2937 54.4676 47.387 55.7876 47.1604C57.1476 46.9337 59.1609 48.0537 59.5076 45.4404C59.5343 45.227 59.7743 45.0404 60.0409 44.8537C60.3609 44.6404 60.7876 44.7204 61.0009 45.0537C61.1609 45.3204 61.3076 45.5737 61.2943 45.8404C61.2809 46.4937 60.9343 47.1337 60.6809 47.947C63.8276 49.6004 65.6009 52.307 65.9209 56.027C66.5609 56.0537 67.1209 56.0804 67.8543 56.1204C68.0809 54.8404 68.2276 53.587 68.5609 52.4004C68.6409 52.1204 68.8809 51.8804 69.1476 51.6537C69.4143 51.4137 69.8409 51.4937 70.0009 51.8137C70.1476 52.107 70.2809 52.4004 70.3609 52.707C70.4409 53.0937 70.2409 53.5337 70.1876 53.947C69.6543 57.6937 69.6543 57.6937 65.9343 58.147C65.8543 59.947 65.7743 61.7737 65.6943 63.587C69.3209 64.2137 69.3343 64.2137 69.9343 68.0004C70.0809 68.8937 70.8543 70.2937 69.3743 70.507C67.9076 70.7204 68.3476 69.0937 68.0809 68.2404C67.9876 68.0404 67.9343 67.787 67.8809 67.5337ZM55.6543 55.8937C53.5876 55.8937 51.6143 55.8937 49.6543 55.8937C48.7076 63.3204 51.1476 68.2537 55.6543 68.0937C55.6543 64.0537 55.6543 60.0004 55.6543 55.8937ZM57.7743 68.3604C60.6276 67.7204 62.7743 66.2804 63.4009 63.6404C63.9876 61.147 63.8676 58.4937 64.0676 55.8804C61.7076 55.8804 59.7876 55.8804 57.7743 55.8804C57.7743 60.0137 57.7743 64.0404 57.7743 68.3604ZM50.0143 53.8937C52.3743 53.8937 54.5743 53.8937 56.7743 53.8937C58.9476 53.8937 61.1343 53.8937 63.3876 53.8937C62.3343 50.8804 59.8009 49.0937 56.7876 49.0537C53.7343 49.0137 51.1076 50.8137 50.0143 53.8937Z" fill="#EC6A30"/>
</svg>
