<svg width="81" height="80" viewBox="0 0 81 80" fill="none" xmlns="http://www.w3.org/2000/svg">
<g clip-path="url(#clip0_246_2103)">
<path d="M45.8105 63.9869C46.1172 64.0002 46.4105 63.9869 46.7038 63.9869H47.1172C47.3705 63.9869 47.5839 64.1869 47.6105 64.4403C48.5972 74.5869 57.4905 80.1202 65.1572 79.4269C73.2772 78.6936 79.7172 72.1336 80.1305 64.1736C80.5705 55.8669 74.9172 48.7202 66.7038 47.1736C62.7838 46.4402 59.0372 47.1336 55.5972 49.2269C50.9839 52.0269 48.3039 56.3069 47.6372 61.9336C47.6105 62.1736 47.4105 62.3602 47.1705 62.3736L46.9839 62.3869C46.7705 62.4002 46.5972 62.4136 46.4239 62.4136C45.5438 62.4136 44.9572 62.3202 44.5438 61.9202C44.1039 61.4802 44.0105 60.8136 44.0105 59.7869V40.5869C44.0105 38.7602 44.5839 38.1736 46.3839 38.1736H51.5972C56.0372 38.1736 60.4772 38.1736 64.9305 38.1602C65.5439 38.1602 66.1705 38.1202 66.7839 38.0269C72.4505 37.2402 76.5972 32.0802 76.2505 26.2802C75.9038 20.5336 71.1172 15.9869 65.3705 15.9602C64.4905 15.9602 64.0238 15.6402 63.6772 14.8536C61.4772 9.76024 55.6905 7.04024 50.4905 8.65357C49.6238 8.92024 49.0905 8.73357 48.5705 7.98691C45.0772 2.88024 39.2372 0.0935728 32.9572 0.533573C26.6905 0.973573 21.3172 4.54691 18.5839 10.0669C18.0105 11.2269 17.6105 12.4402 17.1705 13.7336C16.9705 14.3336 16.7705 14.9202 16.5572 15.5202C16.4905 15.6936 16.3439 15.8136 16.1705 15.8402C15.8772 15.8936 15.5705 15.9336 15.2639 15.9736C14.5572 16.0669 13.8239 16.1736 13.1305 16.3602C7.93052 17.7736 4.38385 22.9602 5.06385 28.1602C5.81052 33.9336 10.4372 38.1469 16.0639 38.1602C20.3705 38.1736 24.6639 38.1736 28.9705 38.1736H34.9305C36.6505 38.1736 37.2639 38.7736 37.2639 40.4669V54.6402C37.2639 55.7202 37.2639 56.8136 37.2505 57.8936C37.2372 59.0669 36.5572 59.7736 35.3839 59.8136C35.1305 59.8269 34.8639 59.8269 34.5839 59.8136H34.1705C33.8905 59.8136 33.6639 59.5869 33.6639 59.3069V55.8269C33.6639 53.1202 33.6639 50.4669 33.6639 47.8136C33.6639 44.3602 31.0372 41.7469 27.5705 41.7469C20.8239 41.7469 14.0772 41.7469 7.33052 41.7469C3.67719 41.7469 1.11719 44.2936 1.11719 47.9469C1.11719 56.3869 1.11719 64.8269 1.11719 73.2669C1.11719 76.9069 3.67719 79.4536 7.33052 79.4536C14.0505 79.4536 20.7705 79.4536 27.4905 79.4536C31.0639 79.4536 33.6639 76.8669 33.6639 73.3069C33.6639 70.9202 33.6639 68.5469 33.6639 66.1602V61.8936C33.6639 61.6136 33.8905 61.3869 34.1705 61.3869H35.0372C37.5172 61.3869 38.8239 60.0669 38.8239 57.5869V40.3469C38.8239 37.9336 37.4905 36.6002 35.0505 36.6002H29.8639C25.3972 36.6002 20.9439 36.6002 16.4772 36.5869C15.7972 36.5869 15.1439 36.5336 14.5572 36.4402C10.4105 35.7736 7.25052 32.4136 6.67719 28.0936C6.14385 24.0936 8.39719 20.0936 12.1572 18.3736C15.9439 16.6269 20.5172 17.6002 23.2639 20.7202C24.6905 22.3336 25.5039 24.2802 25.6772 26.4936H27.2639C26.6905 21.2002 23.8772 17.8269 18.7039 16.1602C18.4639 16.0802 18.3172 15.8269 18.3705 15.5736C19.9705 8.29357 24.1305 3.89357 30.7572 2.48024C38.4105 0.853573 44.4372 3.73357 48.6905 11.0669C52.9305 8.90691 56.7572 9.34691 60.0639 12.3869C62.8772 14.9736 63.7972 18.4002 62.6772 22.0269C61.4238 26.0669 58.5438 28.3602 54.1172 28.8536V30.4002C56.4239 30.2536 58.3839 29.5602 60.1172 28.2536C63.4105 25.7736 64.8905 22.3736 64.6638 17.8402C64.6505 17.6802 64.7172 17.5336 64.8505 17.4269C64.9705 17.3202 65.1439 17.2936 65.2905 17.3336C65.7038 17.4402 66.1172 17.5336 66.5039 17.6136C67.3705 17.8002 68.1839 17.9736 68.9705 18.3069C73.1172 20.0269 75.4105 24.4002 74.5305 28.9469C73.6905 33.2802 69.7305 36.5602 65.3038 36.5736C61.5438 36.5869 57.7838 36.5869 54.0105 36.5869C51.3172 36.5869 48.6372 36.5869 45.9439 36.5869C43.9305 36.5869 42.4639 38.0136 42.4639 39.9736C42.4505 46.8536 42.4505 53.7336 42.4639 60.6136C42.4639 62.5069 43.9039 63.9469 45.8105 63.9869ZM73.6372 74.1736C70.8772 76.5736 67.5972 77.8269 63.9039 77.9069H63.8905H63.8772C60.1705 77.8269 56.8905 76.5602 54.1305 74.1602C53.6105 73.7069 53.4905 73.2269 53.7572 72.5736C55.1572 68.9869 58.6239 66.5736 62.3839 66.5736H62.3972H62.7705C64.3839 66.5736 66.0372 66.5736 67.6238 66.9336C70.5572 67.5869 72.7038 69.4802 74.0105 72.5602C74.2772 73.2136 74.1705 73.7069 73.6372 74.1736ZM58.2238 59.3202C58.2372 56.2002 60.7839 53.6669 63.9039 53.6669H63.9172C65.4239 53.6669 66.8372 54.2669 67.9038 55.3469C68.9705 56.4269 69.5572 57.8669 69.5438 59.3869C69.5305 60.8802 68.9305 62.2936 67.8505 63.3602C66.7705 64.4136 65.3572 65.0002 63.8639 65.0002C63.8505 65.0002 63.8239 65.0002 63.8105 65.0002C60.7172 64.9602 58.2105 62.4136 58.2238 59.3202ZM53.3172 53.0136C58.5705 47.4669 67.3172 46.9736 73.2372 51.8802C79.0372 56.6936 80.3572 65.3602 76.1838 71.1736C76.0905 71.2936 75.9438 71.3736 75.7972 71.3869C75.6372 71.3869 75.4905 71.3203 75.3972 71.2002C75.1039 70.8536 74.8238 70.4936 74.5572 70.1202C73.9572 69.3336 73.3305 68.5202 72.6105 67.8802C71.8772 67.2269 71.0372 66.7069 70.1439 66.1469C69.7439 65.9069 69.3438 65.6536 68.9572 65.4002C68.8372 65.3202 68.7572 65.1869 68.7305 65.0269C68.7172 64.8802 68.7705 64.7336 68.8772 64.6269C70.7972 62.7202 71.1839 60.6669 71.1705 59.2936C71.1439 57.3336 70.3305 55.4402 68.9305 54.1069C66.1172 51.4269 61.7172 51.4269 58.9039 54.1069C57.5172 55.4269 56.7038 57.2936 56.6772 59.2269C56.6505 61.2536 57.4905 63.1736 59.0905 64.7869C59.2105 64.9069 59.2638 65.0802 59.2238 65.2402C59.1838 65.4002 59.0772 65.5469 58.9172 65.6003C56.1038 66.6802 53.9839 68.5736 52.6239 71.2269C52.5439 71.3736 52.3972 71.4802 52.2239 71.4936C52.2105 71.4936 52.1972 71.4936 52.1838 71.4936C52.0238 71.4936 51.8772 71.4269 51.7839 71.2936C48.3039 66.7736 47.9305 58.6936 53.3172 53.0136ZM2.74385 48.0669C2.74385 45.1602 4.54385 43.3469 7.45052 43.3469H27.3572C30.3439 43.3469 32.1305 45.1202 32.1305 48.0802V67.0269C32.1305 67.3069 31.9039 67.5336 31.6239 67.5336H3.25052C2.97052 67.5336 2.74385 67.3069 2.74385 67.0269V48.0669ZM32.1039 73.8936C31.9839 76.0802 30.1172 77.8669 27.9439 77.8802C24.4105 77.8936 20.9039 77.9069 17.4372 77.9069C13.8772 77.9069 10.3572 77.8936 6.91719 77.8802C4.78385 77.8669 2.91719 76.1069 2.78385 73.9603C2.71719 72.9869 2.73052 71.9869 2.75719 71.0269C2.75719 70.5869 2.77052 70.1469 2.77052 69.7069C2.77052 69.4269 2.99719 69.2002 3.27719 69.2002H31.6372C31.9172 69.2002 32.1439 69.4269 32.1439 69.7069C32.1439 70.1469 32.1439 70.5869 32.1572 71.0269C32.1439 72.0136 32.1572 72.9469 32.1039 73.8936Z" fill="#4482B6"/>
<path d="M43.6879 12.7732L45.0479 12.0932C43.2746 8.42655 38.6879 5.54655 34.7812 5.70655V7.21322C38.6746 7.53322 41.6746 9.41322 43.6879 12.7732Z" fill="#EC6A30"/>
<path d="M54.1328 23.6802V25.2268C55.5861 25.0935 57.0261 24.3602 58.0661 23.2135C58.9728 22.2135 59.4661 21.0135 59.4661 19.8535H57.9061C57.5328 21.9735 56.2261 23.2802 54.1328 23.6802Z" fill="#EC6A30"/>
<path d="M16.6875 21.1865V22.7465C18.8475 23.1599 19.9408 24.2665 20.4875 26.5332H22.0342C21.9675 25.1332 21.3008 23.7599 20.1675 22.7065C19.1408 21.7465 17.8475 21.1865 16.6875 21.1865Z" fill="#EC6A30"/>
<path d="M18.1854 31.4668H16.7188V32.9735H18.1854V31.4668Z" fill="#EC6A30"/>
<path d="M23.3316 31.4668H21.8516V32.9735H23.3316V31.4668Z" fill="#EC6A30"/>
<path d="M28.5034 31.4668H27.0234V32.9735H28.5034V31.4668Z" fill="#EC6A30"/>
<path d="M26.128 46.9199C23.728 46.9199 21.3414 46.9199 18.9414 46.9199H17.5014H14.8747C13.9947 46.9199 13.1147 46.9199 12.248 46.9199C10.9947 46.9199 9.74135 46.9199 8.48802 46.9199C7.19469 46.9199 6.34135 47.7599 6.31469 49.0533C6.30135 49.8799 6.30135 50.7066 6.31469 51.5333C6.34135 52.7866 7.19469 53.6533 8.40802 53.6666C14.4214 53.6799 20.4347 53.6799 26.448 53.6666C27.648 53.6666 28.5147 52.7866 28.5414 51.5466C28.5547 50.9999 28.5547 50.4533 28.5414 49.9066V49.3866C28.5414 47.7333 27.7547 46.9333 26.128 46.9199ZM26.9014 51.5333C26.9014 51.8133 26.6747 52.0399 26.3947 52.0399H8.44802C8.16802 52.0399 7.94135 51.8133 7.94135 51.5333V49.0399C7.94135 48.7599 8.16802 48.5333 8.44802 48.5333H26.408C26.688 48.5333 26.9147 48.7599 26.9147 49.0399V51.5333H26.9014Z" fill="#EC6A30"/>
<path d="M26.1702 57.2529C24.1435 57.2529 22.1169 57.2529 20.0769 57.2529H17.4635H14.8102C13.9302 57.2529 13.0369 57.2529 12.1569 57.2529C10.9169 57.2529 9.67687 57.2529 8.45021 57.2663C7.22354 57.2796 6.34354 58.1329 6.31687 59.3596C6.29021 60.2129 6.29021 61.0663 6.31687 61.9196C6.34354 63.1463 7.22354 63.9996 8.45021 64.0129C14.4369 64.0263 20.4235 64.0263 26.4102 64.0129C27.6635 64.0129 28.5169 63.1463 28.5435 61.8529C28.5569 61.3196 28.5435 60.7729 28.5435 60.2263V59.6796C28.5435 58.0663 27.7435 57.2529 26.1702 57.2529ZM26.9302 61.8663C26.9302 62.1463 26.7035 62.3729 26.4235 62.3729H8.46354C8.18354 62.3729 7.95687 62.1463 7.95687 61.8663V59.3729C7.95687 59.0929 8.18354 58.8663 8.46354 58.8663H26.4235C26.7035 58.8663 26.9302 59.0929 26.9302 59.3729V61.8663Z" fill="#EC6A30"/>
<path d="M18.1808 72.7598H16.6875V74.2664H18.1808V72.7598Z" fill="#EC6A30"/>
<path d="M23.3316 72.7734H21.8516V74.2668H23.3316V72.7734Z" fill="#EC6A30"/>
<path d="M28.5034 72.7861H27.0234V74.2528H28.5034V72.7861Z" fill="#EC6A30"/>
</g>
<defs>
<clipPath id="clip0_246_2103">
<rect width="80" height="80" fill="white" transform="translate(0.664062)"/>
</clipPath>
</defs>
</svg>
