<svg width="56" height="56" viewBox="0 0 56 56" fill="none" xmlns="http://www.w3.org/2000/svg">
<path d="M38.7117 17.2893L14.725 41.276C13.605 42.396 11.6917 42.1393 11.015 40.716C9.80169 38.2193 9.10169 35.396 9.10169 32.4327C9.05502 19.5527 22.1217 8.53935 26.555 5.15602C27.4184 4.50268 28.585 4.50268 29.425 5.15602C31.455 6.69602 35.2584 9.89268 38.8284 14.0927C39.6217 15.026 39.575 16.426 38.7117 17.2893Z" fill="#364BBA"/>
<path opacity="0.4" d="M46.9012 32.4573C46.9012 42.8639 38.4312 51.3339 28.0012 51.3339C23.8246 51.3339 19.9279 49.9806 16.7779 47.6473C15.6346 46.8073 15.5412 45.1273 16.5446 44.1239L40.0412 20.6273C41.1379 19.5306 42.9812 19.7639 43.7279 21.1173C45.6412 24.6406 46.9246 28.4673 46.9012 32.4573Z" fill="#364BBA"/>
</svg>
