<svg width="49" height="48" viewBox="0 0 49 48" fill="none" xmlns="http://www.w3.org/2000/svg">
<rect x="0.664062" width="48" height="48" rx="10" fill="#EA5715"/>
<path opacity="0.4" d="M32.4567 16.2203C29.4967 13.2703 24.6967 13.2703 21.7567 16.2203C19.6867 18.2703 19.0666 21.2203 19.8667 23.8203L15.1667 28.5203C14.8367 28.8603 14.6067 29.5303 14.6767 30.0103L14.9767 32.1903C15.0867 32.9103 15.7567 33.5903 16.4767 33.6903L18.6567 33.9903C19.1367 34.0603 19.8067 33.8403 20.1467 33.4903L20.9667 32.6703C21.1667 32.4803 21.1667 32.1603 20.9667 31.9603L19.0267 30.0203C18.7367 29.7303 18.7367 29.2503 19.0267 28.9603C19.3167 28.6703 19.7967 28.6703 20.0867 28.9603L22.0367 30.9103C22.2267 31.1003 22.5466 31.1003 22.7366 30.9103L24.8566 28.8003C27.4466 29.6103 30.3967 28.9803 32.4567 26.9303C35.4067 23.9803 35.4067 19.1703 32.4567 16.2203ZM27.1666 24.0003C25.7866 24.0003 24.6666 22.8803 24.6666 21.5003C24.6666 20.1203 25.7866 19.0003 27.1666 19.0003C28.5466 19.0003 29.6666 20.1203 29.6666 21.5003C29.6666 22.8803 28.5466 24.0003 27.1666 24.0003Z" fill="white"/>
<path d="M27.1641 24C28.5448 24 29.6641 22.8807 29.6641 21.5C29.6641 20.1193 28.5448 19 27.1641 19C25.7834 19 24.6641 20.1193 24.6641 21.5C24.6641 22.8807 25.7834 24 27.1641 24Z" fill="white"/>
</svg>
