<svg width="49" height="48" viewBox="0 0 49 48" fill="none" xmlns="http://www.w3.org/2000/svg">
<rect x="0.664062" width="48" height="48" rx="10" fill="#EA5715"/>
<path opacity="0.4" d="M24.6797 34C30.2025 34 34.6797 29.5228 34.6797 24C34.6797 18.4772 30.2025 14 24.6797 14C19.1568 14 14.6797 18.4772 14.6797 24C14.6797 29.5228 19.1568 34 24.6797 34Z" fill="white"/>
<path d="M20.9975 28.0201C20.8075 28.0201 20.6175 27.9501 20.4675 27.8001C20.1775 27.5101 20.1775 27.0301 20.4675 26.7401L27.0175 20.1902C27.3075 19.9002 27.7875 19.9002 28.0775 20.1902C28.3675 20.4802 28.3675 20.9602 28.0775 21.2502L21.5275 27.8001C21.3775 27.9501 21.1875 28.0201 20.9975 28.0201Z" fill="white"/>
<path d="M21.4097 19.6602C20.5997 19.6602 19.9297 20.3202 19.9297 21.1402C19.9297 21.9502 20.5897 22.6201 21.4097 22.6201C22.2197 22.6201 22.8897 21.9602 22.8897 21.1402C22.8797 20.3202 22.2197 19.6602 21.4097 19.6602Z" fill="white"/>
<path d="M27.9487 25.3906C27.1387 25.3906 26.4688 26.0506 26.4688 26.8706C26.4688 27.6806 27.1287 28.3506 27.9487 28.3506C28.7587 28.3506 29.4287 27.6906 29.4287 26.8706C29.4287 26.0506 28.7687 25.3906 27.9487 25.3906Z" fill="white"/>
</svg>
