<svg width="49" height="48" viewBox="0 0 49 48" fill="none" xmlns="http://www.w3.org/2000/svg">
<rect x="0.335938" width="48" height="48" rx="10" fill="#EA5715"/>
<path d="M24.3331 26.3801C25.6476 26.3801 26.7131 25.3146 26.7131 24.0001C26.7131 22.6857 25.6476 21.6201 24.3331 21.6201C23.0187 21.6201 21.9531 22.6857 21.9531 24.0001C21.9531 25.3146 23.0187 26.3801 24.3331 26.3801Z" fill="white"/>
<path opacity="0.4" d="M32.3362 30.7503C32.1762 30.7503 32.0262 30.7003 31.8862 30.6003C31.5562 30.3503 31.4862 29.8803 31.7362 29.5503C32.9462 27.9403 33.5862 26.0203 33.5862 24.0003C33.5862 21.9803 32.9462 20.0603 31.7362 18.4503C31.4862 18.1203 31.5562 17.6503 31.8862 17.4003C32.2162 17.1503 32.6862 17.2203 32.9362 17.5503C34.3462 19.4203 35.0862 21.6503 35.0862 24.0003C35.0862 26.3503 34.3462 28.5803 32.9362 30.4503C32.7862 30.6503 32.5662 30.7503 32.3362 30.7503Z" fill="white"/>
<path opacity="0.4" d="M16.3359 30.7503C16.1059 30.7503 15.8859 30.6503 15.7359 30.4503C14.3259 28.5803 13.5859 26.3503 13.5859 24.0003C13.5859 21.6503 14.3259 19.4203 15.7359 17.5503C15.9859 17.2203 16.4559 17.1503 16.7859 17.4003C17.1159 17.6503 17.1859 18.1203 16.9359 18.4503C15.7259 20.0603 15.0859 21.9803 15.0859 24.0003C15.0859 26.0203 15.7259 27.9403 16.9359 29.5503C17.1859 29.8803 17.1159 30.3503 16.7859 30.6003C16.6559 30.7003 16.4959 30.7503 16.3359 30.7503Z" fill="white"/>
<path opacity="0.4" d="M29.1331 28.3497C28.9731 28.3497 28.8231 28.2997 28.6831 28.1997C28.3531 27.9497 28.2831 27.4797 28.5331 27.1497C29.2231 26.2397 29.5831 25.1497 29.5831 23.9997C29.5831 22.8497 29.2231 21.7597 28.5331 20.8497C28.2831 20.5197 28.3531 20.0497 28.6831 19.7997C29.0131 19.5497 29.4831 19.6197 29.7331 19.9497C30.6131 21.1297 31.0831 22.5297 31.0831 23.9997C31.0831 25.4697 30.6131 26.8797 29.7331 28.0497C29.5831 28.2497 29.3631 28.3497 29.1331 28.3497Z" fill="white"/>
<path opacity="0.4" d="M19.5359 28.3497C19.3059 28.3497 19.0859 28.2497 18.9359 28.0497C18.0559 26.8697 17.5859 25.4697 17.5859 23.9997C17.5859 22.5297 18.0559 21.1197 18.9359 19.9497C19.1859 19.6197 19.6559 19.5497 19.9859 19.7997C20.3159 20.0497 20.3859 20.5197 20.1359 20.8497C19.4459 21.7597 19.0859 22.8497 19.0859 23.9997C19.0859 25.1497 19.4459 26.2397 20.1359 27.1497C20.3859 27.4797 20.3159 27.9497 19.9859 28.1997C19.8559 28.2997 19.6959 28.3497 19.5359 28.3497Z" fill="white"/>
</svg>
