<svg width="48" height="48" viewBox="0 0 48 48" fill="none" xmlns="http://www.w3.org/2000/svg">
<rect width="48" height="48" rx="10" fill="#EA5715"/>
<path opacity="0.4" d="M14 21.75C13.59 21.75 13.25 21.41 13.25 21V18.5C13.25 15.6 15.61 13.25 18.5 13.25H21C21.41 13.25 21.75 13.59 21.75 14C21.75 14.41 21.41 14.75 21 14.75H18.5C16.43 14.75 14.75 16.43 14.75 18.5V21C14.75 21.41 14.41 21.75 14 21.75Z" fill="white"/>
<path d="M34 21.75C33.59 21.75 33.25 21.41 33.25 21V18.5C33.25 16.43 31.57 14.75 29.5 14.75H27C26.59 14.75 26.25 14.41 26.25 14C26.25 13.59 26.59 13.25 27 13.25H29.5C32.39 13.25 34.75 15.6 34.75 18.5V21C34.75 21.41 34.41 21.75 34 21.75Z" fill="white"/>
<path opacity="0.4" d="M29.5 34.75H28C27.59 34.75 27.25 34.41 27.25 34C27.25 33.59 27.59 33.25 28 33.25H29.5C31.57 33.25 33.25 31.57 33.25 29.5V28C33.25 27.59 33.59 27.25 34 27.25C34.41 27.25 34.75 27.59 34.75 28V29.5C34.75 32.4 32.39 34.75 29.5 34.75Z" fill="white"/>
<path d="M21 34.75H18.5C15.61 34.75 13.25 32.4 13.25 29.5V27C13.25 26.59 13.59 26.25 14 26.25C14.41 26.25 14.75 26.59 14.75 27V29.5C14.75 31.57 16.43 33.25 18.5 33.25H21C21.41 33.25 21.75 33.59 21.75 34C21.75 34.41 21.41 34.75 21 34.75Z" fill="white"/>
<path d="M21 17.25H19C17.86 17.25 17.25 17.85 17.25 19V21C17.25 22.15 17.86 22.75 19 22.75H21C22.14 22.75 22.75 22.15 22.75 21V19C22.75 17.85 22.14 17.25 21 17.25Z" fill="white"/>
<path opacity="0.4" d="M29 17.25H27C25.86 17.25 25.25 17.85 25.25 19V21C25.25 22.15 25.86 22.75 27 22.75H29C30.14 22.75 30.75 22.15 30.75 21V19C30.75 17.85 30.14 17.25 29 17.25Z" fill="white"/>
<path opacity="0.4" d="M21 25.25H19C17.86 25.25 17.25 25.85 17.25 27V29C17.25 30.15 17.86 30.75 19 30.75H21C22.14 30.75 22.75 30.15 22.75 29V27C22.75 25.85 22.14 25.25 21 25.25Z" fill="white"/>
<path d="M29 25.25H27C25.86 25.25 25.25 25.85 25.25 27V29C25.25 30.15 25.86 30.75 27 30.75H29C30.14 30.75 30.75 30.15 30.75 29V27C30.75 25.85 30.14 25.25 29 25.25Z" fill="white"/>
</svg>
