<svg width="48" height="48" viewBox="0 0 48 48" fill="none" xmlns="http://www.w3.org/2000/svg">
<rect width="48" height="48" rx="10" fill="#EA5715"/>
<path opacity="0.4" d="M22.9569 14.1104L17.4569 16.1704C16.4069 16.5704 15.5469 17.8104 15.5469 18.9404V27.0404C15.5469 27.8504 16.0769 28.9204 16.7269 29.4004L22.2269 33.5104C23.1969 34.2404 24.7869 34.2404 25.7569 33.5104L31.2569 29.4004C31.9069 28.9104 32.4369 27.8504 32.4369 27.0404V18.9404C32.4369 17.8204 31.5769 16.5704 30.5269 16.1804L25.0269 14.1204C24.4669 13.9004 23.5269 13.9004 22.9569 14.1104Z" fill="white"/>
<path d="M26.5 22.5C26.5 21.12 25.38 20 24 20C22.62 20 21.5 21.12 21.5 22.5C21.5 23.62 22.24 24.55 23.25 24.87V27.5C23.25 27.91 23.59 28.25 24 28.25C24.41 28.25 24.75 27.91 24.75 27.5V24.87C25.76 24.55 26.5 23.62 26.5 22.5Z" fill="white"/>
</svg>
