<svg width="49" height="48" viewBox="0 0 49 48" fill="none" xmlns="http://www.w3.org/2000/svg">
<rect x="0.335938" width="48" height="48" rx="10" fill="#EA5715"/>
<path opacity="0.4" d="M32.7497 18.9604V21.8004L19.7397 31.3404L17.1097 29.3704C16.4597 28.8804 15.9297 27.8304 15.9297 27.0204V18.9604C15.9297 17.8404 16.7897 16.6004 17.8397 16.2104L23.3097 14.1604C23.8797 13.9504 24.7997 13.9504 25.3697 14.1604L30.8397 16.2104C31.8897 16.6004 32.7497 17.8404 32.7497 18.9604Z" fill="white"/>
<path d="M32.7463 23.1699V27.0199C32.7463 27.8299 32.2162 28.8799 31.5662 29.3699L26.0963 33.4599C25.6163 33.8199 24.9763 33.9999 24.3363 33.9999C23.6963 33.9999 23.0563 33.8199 22.5763 33.4599L20.6562 32.0299L32.7463 23.1699Z" fill="white"/>
</svg>
