<svg width="56" height="56" viewBox="0 0 56 56" fill="none" xmlns="http://www.w3.org/2000/svg">
<path d="M21.7439 30.9861H28.9539V47.7861C28.9539 50.2594 32.0339 51.4261 33.6673 49.5594L51.3306 29.4928C52.8706 27.7428 51.6339 25.0128 49.3006 25.0128H42.0906V8.21277C42.0906 5.73944 39.0106 4.57277 37.3773 6.43944L19.7139 26.5061C18.1973 28.2561 19.4339 30.9861 21.7439 30.9861Z" fill="#274A68"/>
<path opacity="0.4" d="M19.8333 11.084H3.5C2.54333 11.084 1.75 10.2907 1.75 9.33398C1.75 8.37732 2.54333 7.58398 3.5 7.58398H19.8333C20.79 7.58398 21.5833 8.37732 21.5833 9.33398C21.5833 10.2907 20.79 11.084 19.8333 11.084Z" fill="#274A68"/>
<path opacity="0.4" d="M17.5 48.416H3.5C2.54333 48.416 1.75 47.6227 1.75 46.666C1.75 45.7093 2.54333 44.916 3.5 44.916H17.5C18.4567 44.916 19.25 45.7093 19.25 46.666C19.25 47.6227 18.4567 48.416 17.5 48.416Z" fill="#274A68"/>
<path opacity="0.4" d="M10.5 29.75H3.5C2.54333 29.75 1.75 28.9567 1.75 28C1.75 27.0433 2.54333 26.25 3.5 26.25H10.5C11.4567 26.25 12.25 27.0433 12.25 28C12.25 28.9567 11.4567 29.75 10.5 29.75Z" fill="#274A68"/>
</svg>
