<svg width="56" height="56" viewBox="0 0 56 56" fill="none" xmlns="http://www.w3.org/2000/svg">
<path d="M47.9296 44.4276C47.5796 44.7776 47.1362 44.941 46.6929 44.941C46.2496 44.941 45.8062 44.7776 45.4562 44.4276L33.9062 32.8776L35.1429 31.641L36.3796 30.4043L47.9296 41.9543C48.6062 42.631 48.6062 43.751 47.9296 44.4276Z" fill="#444444"/>
<path opacity="0.4" d="M15.1004 21.6542L28.6338 35.1875C29.5438 36.0975 29.5438 37.5675 28.6338 38.4775L26.5337 40.6008C24.6437 42.4675 21.6571 42.4675 19.7904 40.6008L9.66375 30.4742C7.82042 28.6309 7.82042 25.6208 9.66375 23.7542L11.7871 21.6309C12.6971 20.7442 14.1904 20.7442 15.1004 21.6542Z" fill="#444444"/>
<path d="M43.3742 23.776L34.4843 32.6427C33.5509 33.5761 32.0576 33.5761 31.1242 32.6427L17.6609 19.1794C16.7276 18.246 16.7276 16.7527 17.6609 15.8194L26.5509 6.92938C28.3943 5.08604 31.4042 5.08604 33.2709 6.92938L43.3976 17.056C45.2176 18.8994 45.2176 21.886 43.3742 23.776Z" fill="#444444"/>
<path d="M18.6641 50.75H4.66406C3.7074 50.75 2.91406 49.9567 2.91406 49C2.91406 48.0433 3.7074 47.25 4.66406 47.25H18.6641C19.6207 47.25 20.4141 48.0433 20.4141 49C20.4141 49.9567 19.6207 50.75 18.6641 50.75Z" fill="#444444"/>
</svg>
