<svg width="56" height="56" viewBox="0 0 56 56" fill="none" xmlns="http://www.w3.org/2000/svg">
<path opacity="0.4" d="M51.3307 28.0007V39.6673C51.3307 46.6673 46.6641 51.334 39.6641 51.334H16.3307C9.33073 51.334 4.66406 46.6673 4.66406 39.6673V28.0007C4.66406 21.654 8.49073 17.2206 14.4407 16.474C15.0474 16.3806 15.6774 16.334 16.3307 16.334H39.6641C40.2707 16.334 40.8541 16.3573 41.4141 16.4506C47.4341 17.1506 51.3307 21.6073 51.3307 28.0007Z" fill="#EE7944"/>
<path d="M41.4186 16.4493C40.8586 16.356 40.2753 16.3327 39.6686 16.3327H16.3353C15.682 16.3327 15.052 16.3794 14.4453 16.4727C14.772 15.8194 15.2386 15.2127 15.7986 14.6527L23.382 7.04602C26.5786 3.87268 31.7586 3.87268 34.9553 7.04602L39.0386 11.1761C40.532 12.6461 41.3253 14.5127 41.4186 16.4493Z" fill="#EE7944"/>
<path d="M51.3307 29.166H44.3307C41.7641 29.166 39.6641 31.266 39.6641 33.8327C39.6641 36.3993 41.7641 38.4993 44.3307 38.4993H51.3307" fill="#EE7944"/>
</svg>
